<mxfile host="app.diagrams.net" agent="Mozilla/5.0 (Windows NT 10.0; Win64; x64) AppleWebKit/537.36 (KHTML, like Gecko) Chrome/129.0.0.0 Safari/537.36" version="24.7.16" pages="2">
  <diagram id="Ht1M8jgEwFfnCIfOTk4-" name="Page-1">
    <mxGraphModel dx="2585" dy="1385" grid="1" gridSize="10" guides="1" tooltips="1" connect="1" arrows="1" fold="1" page="1" pageScale="1" pageWidth="1169" pageHeight="827" math="0" shadow="0">
      <root>
        <mxCell id="0" />
        <mxCell id="1" parent="0" />
        <mxCell id="-QjtrjUzRDEMRZ5MF8oH-14" value="Amazon SageMaker" style="whiteSpace=wrap;html=1;fillColor=none;fontSize=14;fontColor=#000000;dashed=0;fontStyle=0;align=center;verticalAlign=top;strokeColor=#D86613;gradientColor=none;spacingLeft=0;labelPosition=center;verticalLabelPosition=bottom;container=1;pointerEvents=0;collapsible=0;recursiveResize=0;" parent="1" vertex="1">
          <mxGeometry x="872.5" y="174.5" width="232" height="160" as="geometry" />
        </mxCell>
        <mxCell id="SCVMTBWpLvtzJIhz15lM-34" value="" style="whiteSpace=wrap;html=1;fillColor=none;fontSize=14;fontColor=#000000;dashed=0;fontStyle=0;align=center;verticalAlign=top;strokeColor=#CCCCCC;gradientColor=none;spacingLeft=0;labelPosition=center;verticalLabelPosition=bottom;" parent="1" vertex="1">
          <mxGeometry x="882.5" y="257.5" width="210" height="70" as="geometry" />
        </mxCell>
        <mxCell id="-QjtrjUzRDEMRZ5MF8oH-1" value="" style="outlineConnect=0;fontColor=#232F3E;gradientColor=none;fillColor=#277116;strokeColor=none;dashed=0;verticalLabelPosition=bottom;verticalAlign=top;align=center;html=1;fontSize=12;fontStyle=0;aspect=fixed;pointerEvents=1;shape=mxgraph.aws4.door_lock;" parent="1" vertex="1">
          <mxGeometry x="64.5" y="260.5" width="78" height="78" as="geometry" />
        </mxCell>
        <mxCell id="-QjtrjUzRDEMRZ5MF8oH-2" value="" style="outlineConnect=0;fontColor=#232F3E;gradientColor=none;fillColor=#277116;strokeColor=none;dashed=0;verticalLabelPosition=bottom;verticalAlign=top;align=center;html=1;fontSize=12;fontStyle=0;aspect=fixed;pointerEvents=1;shape=mxgraph.aws4.car;" parent="1" vertex="1">
          <mxGeometry x="64.5" y="356" width="78" height="78" as="geometry" />
        </mxCell>
        <mxCell id="-QjtrjUzRDEMRZ5MF8oH-3" value="" style="outlineConnect=0;fontColor=#232F3E;gradientColor=none;fillColor=#277116;strokeColor=none;dashed=0;verticalLabelPosition=bottom;verticalAlign=top;align=center;html=1;fontSize=12;fontStyle=0;aspect=fixed;pointerEvents=1;shape=mxgraph.aws4.camera;" parent="1" vertex="1">
          <mxGeometry x="64.5" y="451.5" width="78" height="78" as="geometry" />
        </mxCell>
        <mxCell id="-QjtrjUzRDEMRZ5MF8oH-4" value="" style="outlineConnect=0;fontColor=#232F3E;gradientColor=none;fillColor=#277116;strokeColor=none;dashed=0;verticalLabelPosition=bottom;verticalAlign=top;align=center;html=1;fontSize=12;fontStyle=0;aspect=fixed;pointerEvents=1;shape=mxgraph.aws4.utility;" parent="1" vertex="1">
          <mxGeometry x="165.5" y="306.5" width="78" height="78" as="geometry" />
        </mxCell>
        <mxCell id="-QjtrjUzRDEMRZ5MF8oH-5" value="" style="outlineConnect=0;fontColor=#232F3E;gradientColor=none;fillColor=#277116;strokeColor=none;dashed=0;verticalLabelPosition=bottom;verticalAlign=top;align=center;html=1;fontSize=12;fontStyle=0;aspect=fixed;pointerEvents=1;shape=mxgraph.aws4.coffee_pot;" parent="1" vertex="1">
          <mxGeometry x="166.5" y="410.5" width="78" height="78" as="geometry" />
        </mxCell>
        <mxCell id="-QjtrjUzRDEMRZ5MF8oH-6" value="" style="outlineConnect=0;fontColor=#232F3E;gradientColor=none;fillColor=#277116;strokeColor=none;dashed=0;verticalLabelPosition=bottom;verticalAlign=top;align=center;html=1;fontSize=12;fontStyle=0;aspect=fixed;pointerEvents=1;shape=mxgraph.aws4.lightbulb;" parent="1" vertex="1">
          <mxGeometry x="263.5" y="260.5" width="78" height="78" as="geometry" />
        </mxCell>
        <mxCell id="-QjtrjUzRDEMRZ5MF8oH-7" value="" style="outlineConnect=0;fontColor=#232F3E;gradientColor=none;fillColor=#277116;strokeColor=none;dashed=0;verticalLabelPosition=bottom;verticalAlign=top;align=center;html=1;fontSize=12;fontStyle=0;aspect=fixed;pointerEvents=1;shape=mxgraph.aws4.house;" parent="1" vertex="1">
          <mxGeometry x="261.5" y="356" width="78" height="78" as="geometry" />
        </mxCell>
        <mxCell id="-QjtrjUzRDEMRZ5MF8oH-8" value="" style="outlineConnect=0;fontColor=#232F3E;gradientColor=none;fillColor=#277116;strokeColor=none;dashed=0;verticalLabelPosition=bottom;verticalAlign=top;align=center;html=1;fontSize=12;fontStyle=0;aspect=fixed;pointerEvents=1;shape=mxgraph.aws4.thermostat;" parent="1" vertex="1">
          <mxGeometry x="261.5" y="451.5" width="78" height="78" as="geometry" />
        </mxCell>
        <mxCell id="-QjtrjUzRDEMRZ5MF8oH-9" value="1" style="rounded=1;whiteSpace=wrap;html=1;fillColor=#007CBD;strokeColor=none;fontColor=#FFFFFF;fontStyle=1;fontSize=22;" parent="1" vertex="1">
          <mxGeometry x="223.5" y="211.5" width="40" height="38" as="geometry" />
        </mxCell>
        <mxCell id="-QjtrjUzRDEMRZ5MF8oH-10" value="ML Model Executable" style="outlineConnect=0;fontColor=#232F3E;gradientColor=none;fillColor=#116D5B;strokeColor=none;dashed=0;verticalLabelPosition=bottom;verticalAlign=top;align=center;html=1;fontSize=12;fontStyle=0;aspect=fixed;pointerEvents=1;shape=mxgraph.aws4.sagemaker_model;" parent="1" vertex="1">
          <mxGeometry x="473.5" y="244.5" width="78" height="78" as="geometry" />
        </mxCell>
        <mxCell id="-QjtrjUzRDEMRZ5MF8oH-11" value="AWS Lambda Function" style="outlineConnect=0;fontColor=#232F3E;gradientColor=none;fillColor=#277116;strokeColor=none;dashed=0;verticalLabelPosition=bottom;verticalAlign=top;align=center;html=1;fontSize=12;fontStyle=0;aspect=fixed;pointerEvents=1;shape=mxgraph.aws4.lambda_function;" parent="1" vertex="1">
          <mxGeometry x="473.5" y="349.5" width="78" height="78" as="geometry" />
        </mxCell>
        <mxCell id="-QjtrjUzRDEMRZ5MF8oH-12" value="AWS IoT Greengrass Core" style="outlineConnect=0;fontColor=#232F3E;gradientColor=#60A337;gradientDirection=north;fillColor=#277116;strokeColor=#ffffff;dashed=0;verticalLabelPosition=bottom;verticalAlign=top;align=center;html=1;fontSize=12;fontStyle=0;aspect=fixed;shape=mxgraph.aws4.resourceIcon;resIcon=mxgraph.aws4.greengrass;" parent="1" vertex="1">
          <mxGeometry x="473.5" y="457.5" width="78" height="78" as="geometry" />
        </mxCell>
        <mxCell id="-QjtrjUzRDEMRZ5MF8oH-16" value="AWS IoT Core" style="outlineConnect=0;fontColor=#232F3E;gradientColor=#60A337;gradientDirection=north;fillColor=#277116;strokeColor=#ffffff;dashed=0;verticalLabelPosition=bottom;verticalAlign=top;align=center;html=1;fontSize=12;fontStyle=0;aspect=fixed;shape=mxgraph.aws4.resourceIcon;resIcon=mxgraph.aws4.internet_of_things;" parent="1" vertex="1">
          <mxGeometry x="745.5" y="451.5" width="78" height="78" as="geometry" />
        </mxCell>
        <mxCell id="-QjtrjUzRDEMRZ5MF8oH-17" value="AWS IoT Analytics" style="outlineConnect=0;fontColor=#232F3E;gradientColor=#60A337;gradientDirection=north;fillColor=#277116;strokeColor=#ffffff;dashed=0;verticalLabelPosition=bottom;verticalAlign=top;align=center;html=1;fontSize=12;fontStyle=0;aspect=fixed;shape=mxgraph.aws4.resourceIcon;resIcon=mxgraph.aws4.iot_analytics;" parent="1" vertex="1">
          <mxGeometry x="949.5" y="451.5" width="78" height="78" as="geometry" />
        </mxCell>
        <mxCell id="-QjtrjUzRDEMRZ5MF8oH-18" value="ML Model Executable" style="outlineConnect=0;fontColor=#232F3E;gradientColor=none;fillColor=#116D5B;strokeColor=none;dashed=0;verticalLabelPosition=bottom;verticalAlign=top;align=center;html=1;fontSize=12;fontStyle=0;aspect=fixed;pointerEvents=1;shape=mxgraph.aws4.sagemaker_model;" parent="1" vertex="1">
          <mxGeometry x="136.5" y="691.5" width="78" height="78" as="geometry" />
        </mxCell>
        <mxCell id="-QjtrjUzRDEMRZ5MF8oH-19" value="AWS IoT Greengrass Core" style="outlineConnect=0;fontColor=#232F3E;gradientColor=#60A337;gradientDirection=north;fillColor=#277116;strokeColor=#ffffff;dashed=0;verticalLabelPosition=bottom;verticalAlign=top;align=center;html=1;fontSize=12;fontStyle=0;aspect=fixed;shape=mxgraph.aws4.resourceIcon;resIcon=mxgraph.aws4.iot_core;" parent="1" vertex="1">
          <mxGeometry x="137.5" y="796" width="78" height="78" as="geometry" />
        </mxCell>
        <mxCell id="-QjtrjUzRDEMRZ5MF8oH-20" value="Video Camera" style="outlineConnect=0;fontColor=#232F3E;gradientColor=none;fillColor=#277116;strokeColor=none;dashed=0;verticalLabelPosition=bottom;verticalAlign=top;align=center;html=1;fontSize=12;fontStyle=0;aspect=fixed;pointerEvents=1;shape=mxgraph.aws4.camera;" parent="1" vertex="1">
          <mxGeometry x="137.5" y="903.5" width="78" height="78" as="geometry" />
        </mxCell>
        <mxCell id="-QjtrjUzRDEMRZ5MF8oH-21" value="AWS IoT Core" style="outlineConnect=0;fontColor=#232F3E;gradientColor=#60A337;gradientDirection=north;fillColor=#277116;strokeColor=#ffffff;dashed=0;verticalLabelPosition=bottom;verticalAlign=top;align=center;html=1;fontSize=12;fontStyle=0;aspect=fixed;shape=mxgraph.aws4.resourceIcon;resIcon=mxgraph.aws4.internet_of_things;" parent="1" vertex="1">
          <mxGeometry x="352.5" y="711.5" width="78" height="78" as="geometry" />
        </mxCell>
        <mxCell id="-QjtrjUzRDEMRZ5MF8oH-22" value="AWS IoT Analytics" style="outlineConnect=0;fontColor=#232F3E;gradientColor=#60A337;gradientDirection=north;fillColor=#277116;strokeColor=#ffffff;dashed=0;verticalLabelPosition=bottom;verticalAlign=top;align=center;html=1;fontSize=12;fontStyle=0;aspect=fixed;shape=mxgraph.aws4.resourceIcon;resIcon=mxgraph.aws4.iot_analytics;" parent="1" vertex="1">
          <mxGeometry x="532.5" y="708.5" width="78" height="78" as="geometry" />
        </mxCell>
        <mxCell id="-QjtrjUzRDEMRZ5MF8oH-23" value="AWS IoT Events" style="outlineConnect=0;fontColor=#232F3E;gradientColor=#60A337;gradientDirection=north;fillColor=#277116;strokeColor=#ffffff;dashed=0;verticalLabelPosition=bottom;verticalAlign=top;align=center;html=1;fontSize=12;fontStyle=0;aspect=fixed;shape=mxgraph.aws4.resourceIcon;resIcon=mxgraph.aws4.iot_events;" parent="1" vertex="1">
          <mxGeometry x="721.5" y="708.5" width="78" height="78" as="geometry" />
        </mxCell>
        <mxCell id="-QjtrjUzRDEMRZ5MF8oH-24" value="Amazon SNS" style="outlineConnect=0;fontColor=#232F3E;gradientColor=#F34482;gradientDirection=north;fillColor=#BC1356;strokeColor=#ffffff;dashed=0;verticalLabelPosition=bottom;verticalAlign=top;align=center;html=1;fontSize=12;fontStyle=0;aspect=fixed;shape=mxgraph.aws4.resourceIcon;resIcon=mxgraph.aws4.sns;" parent="1" vertex="1">
          <mxGeometry x="902.5" y="708.5" width="78" height="78" as="geometry" />
        </mxCell>
        <mxCell id="-QjtrjUzRDEMRZ5MF8oH-25" value="Amazon Kinesis&lt;br&gt;Video Streams&lt;br&gt;" style="outlineConnect=0;fontColor=#232F3E;gradientColor=#945DF2;gradientDirection=north;fillColor=#5A30B5;strokeColor=#ffffff;dashed=0;verticalLabelPosition=bottom;verticalAlign=top;align=center;html=1;fontSize=12;fontStyle=0;aspect=fixed;shape=mxgraph.aws4.resourceIcon;resIcon=mxgraph.aws4.kinesis_video_streams;" parent="1" vertex="1">
          <mxGeometry x="484.5" y="874.5" width="78" height="78" as="geometry" />
        </mxCell>
        <mxCell id="-QjtrjUzRDEMRZ5MF8oH-26" value="Mobile Application" style="outlineConnect=0;fontColor=#232F3E;gradientColor=#F54749;gradientDirection=north;fillColor=#C7131F;strokeColor=#ffffff;dashed=0;verticalLabelPosition=bottom;verticalAlign=top;align=center;html=1;fontSize=12;fontStyle=0;aspect=fixed;shape=mxgraph.aws4.resourceIcon;resIcon=mxgraph.aws4.mobile;" parent="1" vertex="1">
          <mxGeometry x="785.5" y="873.5" width="78" height="78" as="geometry" />
        </mxCell>
        <mxCell id="-QjtrjUzRDEMRZ5MF8oH-27" value="2" style="rounded=1;whiteSpace=wrap;html=1;fillColor=#007CBD;strokeColor=none;fontColor=#FFFFFF;fontStyle=1;fontSize=22;" parent="1" vertex="1">
          <mxGeometry x="483.5" y="164.5" width="40" height="38" as="geometry" />
        </mxCell>
        <mxCell id="-QjtrjUzRDEMRZ5MF8oH-28" value="3" style="rounded=1;whiteSpace=wrap;html=1;fillColor=#007CBD;strokeColor=none;fontColor=#FFFFFF;fontStyle=1;fontSize=22;" parent="1" vertex="1">
          <mxGeometry x="823.5" y="175.5" width="40" height="38" as="geometry" />
        </mxCell>
        <mxCell id="-QjtrjUzRDEMRZ5MF8oH-29" value="4" style="rounded=1;whiteSpace=wrap;html=1;fillColor=#007CBD;strokeColor=none;fontColor=#FFFFFF;fontStyle=1;fontSize=22;" parent="1" vertex="1">
          <mxGeometry x="633.5" y="399.5" width="40" height="38" as="geometry" />
        </mxCell>
        <mxCell id="-QjtrjUzRDEMRZ5MF8oH-30" value="5" style="rounded=1;whiteSpace=wrap;html=1;fillColor=#007CBD;strokeColor=none;fontColor=#FFFFFF;fontStyle=1;fontSize=22;" parent="1" vertex="1">
          <mxGeometry x="878.5" y="399.5" width="40" height="38" as="geometry" />
        </mxCell>
        <mxCell id="-QjtrjUzRDEMRZ5MF8oH-31" value="6" style="rounded=1;whiteSpace=wrap;html=1;fillColor=#007CBD;strokeColor=none;fontColor=#FFFFFF;fontStyle=1;fontSize=22;" parent="1" vertex="1">
          <mxGeometry x="136.5" y="608.5" width="40" height="38" as="geometry" />
        </mxCell>
        <mxCell id="-QjtrjUzRDEMRZ5MF8oH-32" value="7" style="rounded=1;whiteSpace=wrap;html=1;fillColor=#007CBD;strokeColor=none;fontColor=#FFFFFF;fontStyle=1;fontSize=22;" parent="1" vertex="1">
          <mxGeometry x="462.5" y="666.5" width="40" height="38" as="geometry" />
        </mxCell>
        <mxCell id="-QjtrjUzRDEMRZ5MF8oH-33" value="8" style="rounded=1;whiteSpace=wrap;html=1;fillColor=#007CBD;strokeColor=none;fontColor=#FFFFFF;fontStyle=1;fontSize=22;" parent="1" vertex="1">
          <mxGeometry x="832.5" y="666.5" width="40" height="38" as="geometry" />
        </mxCell>
        <mxCell id="-QjtrjUzRDEMRZ5MF8oH-34" value="9" style="rounded=1;whiteSpace=wrap;html=1;fillColor=#007CBD;strokeColor=none;fontColor=#FFFFFF;fontStyle=1;fontSize=22;" parent="1" vertex="1">
          <mxGeometry x="352.5" y="854.5" width="40" height="38" as="geometry" />
        </mxCell>
        <mxCell id="-QjtrjUzRDEMRZ5MF8oH-35" value="10" style="rounded=1;whiteSpace=wrap;html=1;fillColor=#007CBD;strokeColor=none;fontColor=#FFFFFF;fontStyle=1;fontSize=22;" parent="1" vertex="1">
          <mxGeometry x="652.5" y="854.5" width="40" height="38" as="geometry" />
        </mxCell>
        <mxCell id="-QjtrjUzRDEMRZ5MF8oH-47" value="Title text" style="text;html=1;resizable=0;points=[];autosize=1;align=left;verticalAlign=top;spacingTop=-4;fontSize=30;fontStyle=1" parent="1" vertex="1">
          <mxGeometry x="56.5" y="64.5" width="130" height="40" as="geometry" />
        </mxCell>
        <mxCell id="-QjtrjUzRDEMRZ5MF8oH-48" value="Subtitle text&lt;br style=&quot;font-size: 16px&quot;&gt;" style="text;html=1;resizable=0;points=[];autosize=1;align=left;verticalAlign=top;spacingTop=-4;fontSize=16;" parent="1" vertex="1">
          <mxGeometry x="56.5" y="114.5" width="100" height="20" as="geometry" />
        </mxCell>
        <mxCell id="-QjtrjUzRDEMRZ5MF8oH-49" value="Label" style="text;html=1;resizable=0;points=[];autosize=1;align=left;verticalAlign=top;spacingTop=-4;fontSize=16;fontStyle=1" parent="1" vertex="1">
          <mxGeometry x="84.5" y="164.5" width="50" height="20" as="geometry" />
        </mxCell>
        <mxCell id="SCVMTBWpLvtzJIhz15lM-1" value="" style="line;strokeWidth=2;html=1;fontSize=14;" parent="1" vertex="1">
          <mxGeometry x="52.5" y="139.5" width="1060" height="10" as="geometry" />
        </mxCell>
        <mxCell id="SCVMTBWpLvtzJIhz15lM-2" value="&lt;span&gt;Label&lt;/span&gt;" style="text;html=1;resizable=0;points=[];autosize=1;align=left;verticalAlign=top;spacingTop=-4;fontSize=14;fontStyle=1" parent="1" vertex="1">
          <mxGeometry x="442.5" y="216.5" width="50" height="20" as="geometry" />
        </mxCell>
        <mxCell id="SCVMTBWpLvtzJIhz15lM-3" value="" style="edgeStyle=orthogonalEdgeStyle;html=1;endArrow=open;elbow=vertical;startArrow=none;endFill=0;strokeColor=#545B64;rounded=0;fontSize=14;" parent="1" edge="1">
          <mxGeometry width="100" relative="1" as="geometry">
            <mxPoint x="354.5" y="394.5" as="sourcePoint" />
            <mxPoint x="404.5" y="394.5" as="targetPoint" />
          </mxGeometry>
        </mxCell>
        <mxCell id="SCVMTBWpLvtzJIhz15lM-5" value="" style="shape=curlyBracket;whiteSpace=wrap;html=1;rounded=1;fontSize=14;" parent="1" vertex="1">
          <mxGeometry x="415.5" y="248.5" width="20" height="290" as="geometry" />
        </mxCell>
        <mxCell id="SCVMTBWpLvtzJIhz15lM-17" value="&lt;span&gt;Label&lt;/span&gt;" style="edgeStyle=orthogonalEdgeStyle;html=1;endArrow=open;elbow=vertical;startArrow=none;endFill=0;strokeColor=#545B64;rounded=0;fontSize=14;strokeWidth=2;" parent="1" edge="1">
          <mxGeometry x="-0.037" y="20" width="100" relative="1" as="geometry">
            <mxPoint x="584.5" y="254.5" as="sourcePoint" />
            <mxPoint x="854.5" y="254.5" as="targetPoint" />
            <mxPoint as="offset" />
          </mxGeometry>
        </mxCell>
        <mxCell id="SCVMTBWpLvtzJIhz15lM-18" value="&lt;span&gt;Label&lt;/span&gt;" style="edgeStyle=orthogonalEdgeStyle;html=1;endArrow=none;elbow=vertical;startArrow=open;endFill=0;strokeColor=#545B64;rounded=0;fontSize=14;strokeWidth=2;startFill=0;" parent="1" edge="1">
          <mxGeometry x="-0.037" y="20" width="100" relative="1" as="geometry">
            <mxPoint x="582.5" y="318" as="sourcePoint" />
            <mxPoint x="852.5" y="318" as="targetPoint" />
            <mxPoint as="offset" />
          </mxGeometry>
        </mxCell>
        <mxCell id="SCVMTBWpLvtzJIhz15lM-19" value="&lt;span&gt;Label&lt;/span&gt;" style="edgeStyle=orthogonalEdgeStyle;html=1;endArrow=open;elbow=vertical;startArrow=none;endFill=0;strokeColor=#545B64;rounded=0;fontSize=14;strokeWidth=2;" parent="1" edge="1">
          <mxGeometry x="-0.037" y="20" width="100" relative="1" as="geometry">
            <mxPoint x="594.5000000000002" y="484.5" as="sourcePoint" />
            <mxPoint x="714.5" y="484.5" as="targetPoint" />
            <mxPoint as="offset" />
          </mxGeometry>
        </mxCell>
        <mxCell id="SCVMTBWpLvtzJIhz15lM-20" value="&lt;span&gt;Label&lt;/span&gt;" style="edgeStyle=orthogonalEdgeStyle;html=1;endArrow=open;elbow=vertical;startArrow=none;endFill=0;strokeColor=#545B64;rounded=0;fontSize=14;strokeWidth=2;" parent="1" edge="1">
          <mxGeometry x="-0.037" y="20" width="100" relative="1" as="geometry">
            <mxPoint x="838.5000000000002" y="487.5" as="sourcePoint" />
            <mxPoint x="924.5" y="487.5" as="targetPoint" />
            <mxPoint as="offset" />
          </mxGeometry>
        </mxCell>
        <mxCell id="SCVMTBWpLvtzJIhz15lM-21" value="Label" style="text;html=1;resizable=0;points=[];autosize=1;align=left;verticalAlign=top;spacingTop=-4;fontSize=16;fontStyle=1" parent="1" vertex="1">
          <mxGeometry x="66.5" y="576.5" width="50" height="20" as="geometry" />
        </mxCell>
        <mxCell id="SCVMTBWpLvtzJIhz15lM-22" value="&lt;span&gt;Label&lt;/span&gt;" style="text;html=1;resizable=0;points=[];autosize=1;align=left;verticalAlign=top;spacingTop=-4;fontSize=14;fontStyle=1" parent="1" vertex="1">
          <mxGeometry x="136.5" y="656.5" width="50" height="20" as="geometry" />
        </mxCell>
        <mxCell id="SCVMTBWpLvtzJIhz15lM-23" value="" style="shape=curlyBracket;whiteSpace=wrap;html=1;rounded=1;fontSize=14;" parent="1" vertex="1">
          <mxGeometry x="76.5" y="691.5" width="20" height="290" as="geometry" />
        </mxCell>
        <mxCell id="SCVMTBWpLvtzJIhz15lM-24" value="Video Events" style="edgeStyle=orthogonalEdgeStyle;html=1;endArrow=open;elbow=vertical;startArrow=none;endFill=0;strokeColor=#545B64;rounded=0;fontSize=14;strokeWidth=2;" parent="1" edge="1">
          <mxGeometry x="-0.037" y="20" width="100" relative="1" as="geometry">
            <mxPoint x="261.5" y="753.5" as="sourcePoint" />
            <mxPoint x="342.5" y="753.5" as="targetPoint" />
            <mxPoint as="offset" />
          </mxGeometry>
        </mxCell>
        <mxCell id="SCVMTBWpLvtzJIhz15lM-25" value="" style="edgeStyle=orthogonalEdgeStyle;html=1;endArrow=open;elbow=vertical;startArrow=none;endFill=0;strokeColor=#545B64;rounded=0;fontSize=14;strokeWidth=2;" parent="1" edge="1">
          <mxGeometry x="-0.037" y="20" width="100" relative="1" as="geometry">
            <mxPoint x="443" y="750" as="sourcePoint" />
            <mxPoint x="524" y="750" as="targetPoint" />
            <mxPoint as="offset" />
          </mxGeometry>
        </mxCell>
        <mxCell id="SCVMTBWpLvtzJIhz15lM-26" value="" style="edgeStyle=orthogonalEdgeStyle;html=1;endArrow=open;elbow=vertical;startArrow=none;endFill=0;strokeColor=#545B64;rounded=0;fontSize=14;strokeWidth=2;" parent="1" edge="1">
          <mxGeometry x="-0.037" y="20" width="100" relative="1" as="geometry">
            <mxPoint x="622.5" y="750" as="sourcePoint" />
            <mxPoint x="703.5" y="750" as="targetPoint" />
            <mxPoint as="offset" />
          </mxGeometry>
        </mxCell>
        <mxCell id="SCVMTBWpLvtzJIhz15lM-27" value="" style="edgeStyle=orthogonalEdgeStyle;html=1;endArrow=open;elbow=vertical;startArrow=none;endFill=0;strokeColor=#545B64;rounded=0;fontSize=14;strokeWidth=2;" parent="1" edge="1">
          <mxGeometry x="-0.037" y="20" width="100" relative="1" as="geometry">
            <mxPoint x="811.5" y="747.5" as="sourcePoint" />
            <mxPoint x="892.5" y="747.5" as="targetPoint" />
            <mxPoint as="offset" />
          </mxGeometry>
        </mxCell>
        <mxCell id="SCVMTBWpLvtzJIhz15lM-28" value="Video Stream" style="edgeStyle=orthogonalEdgeStyle;html=1;endArrow=open;elbow=vertical;startArrow=none;endFill=0;strokeColor=#545B64;rounded=0;fontSize=14;strokeWidth=2;" parent="1" edge="1">
          <mxGeometry x="0.0038" y="-11" width="100" relative="1" as="geometry">
            <mxPoint x="262" y="913" as="sourcePoint" />
            <mxPoint x="472.5" y="913.5" as="targetPoint" />
            <mxPoint as="offset" />
            <Array as="points">
              <mxPoint x="367.5" y="913.5" />
            </Array>
          </mxGeometry>
        </mxCell>
        <mxCell id="SCVMTBWpLvtzJIhz15lM-29" value="" style="edgeStyle=orthogonalEdgeStyle;html=1;endArrow=open;elbow=vertical;startArrow=none;endFill=0;strokeColor=#545B64;rounded=0;fontSize=14;strokeWidth=2;" parent="1" edge="1">
          <mxGeometry x="0.0038" y="-11" width="100" relative="1" as="geometry">
            <mxPoint x="575.0714285714287" y="913.2142857142858" as="sourcePoint" />
            <mxPoint x="762.5" y="913.5" as="targetPoint" />
            <mxPoint as="offset" />
            <Array as="points">
              <mxPoint x="680.5" y="913.5" />
            </Array>
          </mxGeometry>
        </mxCell>
        <mxCell id="SCVMTBWpLvtzJIhz15lM-30" value="Build" style="outlineConnect=0;gradientColor=none;fontColor=#545B64;strokeColor=none;fillColor=#879196;dashed=0;verticalLabelPosition=bottom;verticalAlign=top;align=center;html=1;fontSize=12;fontStyle=0;aspect=fixed;shape=mxgraph.aws4.illustration_devices;pointerEvents=1" parent="1" vertex="1">
          <mxGeometry x="962.5" y="179.5" width="52" height="38" as="geometry" />
        </mxCell>
        <mxCell id="SCVMTBWpLvtzJIhz15lM-31" value="Train" style="outlineConnect=0;gradientColor=none;fontColor=#545B64;strokeColor=none;fillColor=#879196;dashed=0;verticalLabelPosition=bottom;verticalAlign=top;align=center;html=1;fontSize=12;fontStyle=0;aspect=fixed;shape=mxgraph.aws4.illustration_devices;pointerEvents=1" parent="1" vertex="1">
          <mxGeometry x="892.5" y="267.5" width="52" height="38" as="geometry" />
        </mxCell>
        <mxCell id="SCVMTBWpLvtzJIhz15lM-32" value="Optimize" style="outlineConnect=0;gradientColor=none;fontColor=#545B64;strokeColor=none;fillColor=#879196;dashed=0;verticalLabelPosition=bottom;verticalAlign=top;align=center;html=1;fontSize=12;fontStyle=0;aspect=fixed;shape=mxgraph.aws4.illustration_devices;pointerEvents=1" parent="1" vertex="1">
          <mxGeometry x="1032.5" y="267.5" width="52" height="38" as="geometry" />
        </mxCell>
        <mxCell id="SCVMTBWpLvtzJIhz15lM-33" value="" style="edgeStyle=orthogonalEdgeStyle;html=1;endArrow=open;elbow=vertical;startArrow=none;endFill=0;strokeColor=#545B64;rounded=0;fontSize=14;" parent="1" edge="1">
          <mxGeometry width="100" relative="1" as="geometry">
            <mxPoint x="958.5" y="293.5" as="sourcePoint" />
            <mxPoint x="1018.5" y="293.5" as="targetPoint" />
          </mxGeometry>
        </mxCell>
        <mxCell id="SCVMTBWpLvtzJIhz15lM-35" value="" style="edgeStyle=orthogonalEdgeStyle;html=1;endArrow=open;elbow=vertical;startArrow=none;endFill=0;strokeColor=#545B64;rounded=0;fontSize=14;" parent="1" edge="1">
          <mxGeometry width="100" relative="1" as="geometry">
            <mxPoint x="992.5" y="236.46774193548387" as="sourcePoint" />
            <mxPoint x="992.5" y="256.4677419354839" as="targetPoint" />
          </mxGeometry>
        </mxCell>
        <mxCell id="7OVz4w7n9kzEPWy-4BBC-3" value="" style="rounded=0;whiteSpace=wrap;html=1;fillColor=#EAEDED;fontSize=22;fontColor=#FFFFFF;strokeColor=none;labelBackgroundColor=none;" parent="1" vertex="1">
          <mxGeometry x="1151" y="51" width="539" height="1220" as="geometry" />
        </mxCell>
        <mxCell id="7OVz4w7n9kzEPWy-4BBC-4" value="1" style="rounded=1;whiteSpace=wrap;html=1;fillColor=#007CBD;strokeColor=none;fontColor=#FFFFFF;fontStyle=1;fontSize=22;labelBackgroundColor=none;" parent="1" vertex="1">
          <mxGeometry x="1169" y="63" width="40" height="38" as="geometry" />
        </mxCell>
        <mxCell id="7OVz4w7n9kzEPWy-4BBC-5" value="2" style="rounded=1;whiteSpace=wrap;html=1;fillColor=#007CBD;strokeColor=none;fontColor=#FFFFFF;fontStyle=1;fontSize=22;labelBackgroundColor=none;" parent="1" vertex="1">
          <mxGeometry x="1167.5" y="185" width="40" height="38" as="geometry" />
        </mxCell>
        <mxCell id="7OVz4w7n9kzEPWy-4BBC-6" value="3" style="rounded=1;whiteSpace=wrap;html=1;fillColor=#007CBD;strokeColor=none;fontColor=#FFFFFF;fontStyle=1;fontSize=22;labelBackgroundColor=none;" parent="1" vertex="1">
          <mxGeometry x="1167.5" y="305" width="40" height="38" as="geometry" />
        </mxCell>
        <mxCell id="7OVz4w7n9kzEPWy-4BBC-7" value="4" style="rounded=1;whiteSpace=wrap;html=1;fillColor=#007CBD;strokeColor=none;fontColor=#FFFFFF;fontStyle=1;fontSize=22;labelBackgroundColor=none;" parent="1" vertex="1">
          <mxGeometry x="1167.5" y="419" width="40" height="38" as="geometry" />
        </mxCell>
        <mxCell id="7OVz4w7n9kzEPWy-4BBC-8" value="5" style="rounded=1;whiteSpace=wrap;html=1;fillColor=#007CBD;strokeColor=none;fontColor=#FFFFFF;fontStyle=1;fontSize=22;labelBackgroundColor=none;" parent="1" vertex="1">
          <mxGeometry x="1169" y="536" width="40" height="38" as="geometry" />
        </mxCell>
        <mxCell id="7OVz4w7n9kzEPWy-4BBC-9" value="6" style="rounded=1;whiteSpace=wrap;html=1;fillColor=#007CBD;strokeColor=none;fontColor=#FFFFFF;fontStyle=1;fontSize=22;labelBackgroundColor=none;" parent="1" vertex="1">
          <mxGeometry x="1170" y="651" width="40" height="38" as="geometry" />
        </mxCell>
        <mxCell id="7OVz4w7n9kzEPWy-4BBC-10" value="7" style="rounded=1;whiteSpace=wrap;html=1;fillColor=#007CBD;strokeColor=none;fontColor=#FFFFFF;fontStyle=1;fontSize=22;labelBackgroundColor=none;" parent="1" vertex="1">
          <mxGeometry x="1169.5" y="767" width="40" height="38" as="geometry" />
        </mxCell>
        <mxCell id="7OVz4w7n9kzEPWy-4BBC-11" value="8" style="rounded=1;whiteSpace=wrap;html=1;fillColor=#007CBD;strokeColor=none;fontColor=#FFFFFF;fontStyle=1;fontSize=22;labelBackgroundColor=none;" parent="1" vertex="1">
          <mxGeometry x="1170" y="885" width="40" height="38" as="geometry" />
        </mxCell>
        <mxCell id="7OVz4w7n9kzEPWy-4BBC-12" value="9" style="rounded=1;whiteSpace=wrap;html=1;fillColor=#007CBD;strokeColor=none;fontColor=#FFFFFF;fontStyle=1;fontSize=22;labelBackgroundColor=none;" parent="1" vertex="1">
          <mxGeometry x="1168" y="1005" width="40" height="38" as="geometry" />
        </mxCell>
        <mxCell id="7OVz4w7n9kzEPWy-4BBC-13" value="&lt;span&gt;Lorem ipsum dolor sit amet, consectetur adipiscing elit, sed do eiusmod tempor incididunt ut labore et dolore magna aliqua. Ut enim ad minim veniam, quis nostrud exercitation ullamco laboris nisi ut aliquip ex ea commodo consequat. Duis aute irure dolor in reprehenderit in voluptate velit esse cillum dolore eu fugiat nulla pariatur. Excepteur sint occaecat cupidatat non proident, sunt in culpa qui officia deserunt mollit anim id est laborum.&lt;/span&gt;&lt;br&gt;" style="text;html=1;align=left;verticalAlign=top;spacingTop=-4;fontSize=14;labelBackgroundColor=none;whiteSpace=wrap;" parent="1" vertex="1">
          <mxGeometry x="1220.5" y="62.5" width="449" height="118" as="geometry" />
        </mxCell>
        <mxCell id="7OVz4w7n9kzEPWy-4BBC-14" value="&lt;span&gt;Lorem ipsum dolor sit amet, consectetur adipiscing elit, sed do eiusmod tempor incididunt ut labore et dolore magna aliqua. Ut enim ad minim veniam, quis nostrud exercitation ullamco laboris nisi ut aliquip ex ea commodo consequat. Duis aute irure dolor in reprehenderit in voluptate velit esse cillum dolore eu fugiat nulla pariatur. Excepteur sint occaecat cupidatat non proident, sunt in culpa qui officia deserunt mollit anim id est laborum.&lt;/span&gt;&lt;br&gt;" style="text;html=1;align=left;verticalAlign=top;spacingTop=-4;fontSize=14;labelBackgroundColor=none;whiteSpace=wrap;" parent="1" vertex="1">
          <mxGeometry x="1219.5" y="185.5" width="450" height="115" as="geometry" />
        </mxCell>
        <mxCell id="7OVz4w7n9kzEPWy-4BBC-15" value="&lt;span&gt;Lorem ipsum dolor sit amet, consectetur adipiscing elit, sed do eiusmod tempor incididunt ut labore et dolore magna aliqua. Ut enim ad minim veniam, quis nostrud exercitation ullamco laboris nisi ut aliquip ex ea commodo consequat. Duis aute irure dolor in reprehenderit in voluptate velit esse cillum dolore eu fugiat nulla pariatur. Excepteur sint occaecat cupidatat non proident, sunt in culpa qui officia deserunt mollit anim id est laborum.&lt;/span&gt;&lt;br&gt;" style="text;html=1;align=left;verticalAlign=top;spacingTop=-4;fontSize=14;labelBackgroundColor=none;whiteSpace=wrap;" parent="1" vertex="1">
          <mxGeometry x="1219.5" y="303.5" width="450" height="117" as="geometry" />
        </mxCell>
        <mxCell id="7OVz4w7n9kzEPWy-4BBC-16" value="&lt;span&gt;Lorem ipsum dolor sit amet, consectetur adipiscing elit, sed do eiusmod tempor incididunt ut labore et dolore magna aliqua. Ut enim ad minim veniam, quis nostrud exercitation ullamco laboris nisi ut aliquip ex ea commodo consequat. Duis aute irure dolor in reprehenderit in voluptate velit esse cillum dolore eu fugiat nulla pariatur. Excepteur sint occaecat cupidatat non proident, sunt in culpa qui officia deserunt mollit anim id est laborum.&lt;/span&gt;&lt;br&gt;" style="text;html=1;align=left;verticalAlign=top;spacingTop=-4;fontSize=14;labelBackgroundColor=none;whiteSpace=wrap;" parent="1" vertex="1">
          <mxGeometry x="1219.5" y="419.5" width="450" height="121" as="geometry" />
        </mxCell>
        <mxCell id="7OVz4w7n9kzEPWy-4BBC-17" value="&lt;span&gt;Lorem ipsum dolor sit amet, consectetur adipiscing elit, sed do eiusmod tempor incididunt ut labore et dolore magna aliqua. Ut enim ad minim veniam, quis nostrud exercitation ullamco laboris nisi ut aliquip ex ea commodo consequat. Duis aute irure dolor in reprehenderit in voluptate velit esse cillum dolore eu fugiat nulla pariatur. Excepteur sint occaecat cupidatat non proident, sunt in culpa qui officia deserunt mollit anim id est laborum.&lt;/span&gt;&lt;br&gt;" style="text;html=1;align=left;verticalAlign=top;spacingTop=-4;fontSize=14;labelBackgroundColor=none;whiteSpace=wrap;" parent="1" vertex="1">
          <mxGeometry x="1220.5" y="536.5" width="449" height="114" as="geometry" />
        </mxCell>
        <mxCell id="7OVz4w7n9kzEPWy-4BBC-18" value="&lt;span&gt;Lorem ipsum dolor sit amet, consectetur adipiscing elit, sed do eiusmod tempor incididunt ut labore et dolore magna aliqua. Ut enim ad minim veniam, quis nostrud exercitation ullamco laboris nisi ut aliquip ex ea commodo consequat. Duis aute irure dolor in reprehenderit in voluptate velit esse cillum dolore eu fugiat nulla pariatur. Excepteur sint occaecat cupidatat non proident, sunt in culpa qui officia deserunt mollit anim id est laborum.&lt;/span&gt;&lt;br&gt;" style="text;html=1;align=left;verticalAlign=top;spacingTop=-4;fontSize=14;labelBackgroundColor=none;whiteSpace=wrap;" parent="1" vertex="1">
          <mxGeometry x="1220.5" y="652.5" width="450" height="118" as="geometry" />
        </mxCell>
        <mxCell id="7OVz4w7n9kzEPWy-4BBC-19" value="&lt;span&gt;Lorem ipsum dolor sit amet, consectetur adipiscing elit, sed do eiusmod tempor incididunt ut labore et dolore magna aliqua. Ut enim ad minim veniam, quis nostrud exercitation ullamco laboris nisi ut aliquip ex ea commodo consequat. Duis aute irure dolor in reprehenderit in voluptate velit esse cillum dolore eu fugiat nulla pariatur. Excepteur sint occaecat cupidatat non proident, sunt in culpa qui officia deserunt mollit anim id est laborum.&lt;/span&gt;&lt;br&gt;" style="text;html=1;align=left;verticalAlign=top;spacingTop=-4;fontSize=14;labelBackgroundColor=none;whiteSpace=wrap;" parent="1" vertex="1">
          <mxGeometry x="1220.5" y="767.5" width="449" height="113" as="geometry" />
        </mxCell>
        <mxCell id="7OVz4w7n9kzEPWy-4BBC-20" value="&lt;span&gt;Lorem ipsum dolor sit amet, consectetur adipiscing elit, sed do eiusmod tempor incididunt ut labore et dolore magna aliqua. Ut enim ad minim veniam, quis nostrud exercitation ullamco laboris nisi ut aliquip ex ea commodo consequat. Duis aute irure dolor in reprehenderit in voluptate velit esse cillum dolore eu fugiat nulla pariatur. Excepteur sint occaecat cupidatat non proident, sunt in culpa qui officia deserunt mollit anim id est laborum.&lt;/span&gt;&lt;br&gt;" style="text;html=1;align=left;verticalAlign=top;spacingTop=-4;fontSize=14;labelBackgroundColor=none;whiteSpace=wrap;" parent="1" vertex="1">
          <mxGeometry x="1220.5" y="886.5" width="449" height="124" as="geometry" />
        </mxCell>
        <mxCell id="7OVz4w7n9kzEPWy-4BBC-21" value="&lt;span&gt;Lorem ipsum dolor sit amet, consectetur adipiscing elit, sed do eiusmod tempor incididunt ut labore et dolore magna aliqua. Ut enim ad minim veniam, quis nostrud exercitation ullamco laboris nisi ut aliquip ex ea commodo consequat. Duis aute irure dolor in reprehenderit in voluptate velit esse cillum dolore eu fugiat nulla pariatur. Excepteur sint occaecat cupidatat non proident, sunt in culpa qui officia deserunt mollit anim id est laborum.&lt;/span&gt;&lt;br&gt;" style="text;html=1;align=left;verticalAlign=top;spacingTop=-4;fontSize=14;labelBackgroundColor=none;whiteSpace=wrap;" parent="1" vertex="1">
          <mxGeometry x="1220.5" y="1005.5" width="449" height="115" as="geometry" />
        </mxCell>
        <mxCell id="7OVz4w7n9kzEPWy-4BBC-22" value="10" style="rounded=1;whiteSpace=wrap;html=1;fillColor=#007CBD;strokeColor=none;fontColor=#FFFFFF;fontStyle=1;fontSize=22;labelBackgroundColor=none;" parent="1" vertex="1">
          <mxGeometry x="1169" y="1130.5" width="40" height="38" as="geometry" />
        </mxCell>
        <mxCell id="7OVz4w7n9kzEPWy-4BBC-23" value="&lt;span&gt;Lorem ipsum dolor sit amet, consectetur adipiscing elit, sed do eiusmod tempor incididunt ut labore et dolore magna aliqua. Ut enim ad minim veniam, quis nostrud exercitation ullamco laboris nisi ut aliquip ex ea commodo consequat. Duis aute irure dolor in reprehenderit in voluptate velit esse cillum dolore eu fugiat nulla pariatur. Excepteur sint occaecat cupidatat non proident, sunt in culpa qui officia deserunt mollit anim id est laborum.&lt;/span&gt;&lt;br&gt;" style="text;html=1;align=left;verticalAlign=top;spacingTop=-4;fontSize=14;labelBackgroundColor=none;whiteSpace=wrap;" parent="1" vertex="1">
          <mxGeometry x="1221.5" y="1131" width="449" height="115" as="geometry" />
        </mxCell>
      </root>
    </mxGraphModel>
  </diagram>
  <diagram id="dF0k64KF5vL1CM7xLFBh" name="Azure-Subscription">
    <mxGraphModel dx="1593" dy="1989" grid="1" gridSize="10" guides="1" tooltips="1" connect="1" arrows="1" fold="1" page="1" pageScale="1" pageWidth="827" pageHeight="1169" math="0" shadow="0">
      <root>
        <mxCell id="0" />
        <mxCell id="1" parent="0" />
        <mxCell id="79iyy5_s4vcbfLESOXtx-1" value="Azure Subscription&lt;div&gt;&lt;br&gt;&lt;/div&gt;&lt;div&gt;&lt;br&gt;&lt;/div&gt;&lt;div&gt;&lt;br&gt;&lt;/div&gt;&lt;div&gt;&lt;br&gt;&lt;/div&gt;&lt;div&gt;&lt;br&gt;&lt;/div&gt;&lt;div&gt;&lt;br&gt;&lt;/div&gt;&lt;div&gt;&lt;br&gt;&lt;/div&gt;&lt;div&gt;&lt;br&gt;&lt;/div&gt;&lt;div&gt;&lt;br&gt;&lt;/div&gt;&lt;div&gt;&lt;br&gt;&lt;/div&gt;&lt;div&gt;&lt;br&gt;&lt;/div&gt;&lt;div&gt;&lt;br&gt;&lt;/div&gt;&lt;div&gt;&lt;br&gt;&lt;/div&gt;&lt;div&gt;&lt;br&gt;&lt;/div&gt;&lt;div&gt;&lt;br&gt;&lt;/div&gt;&lt;div&gt;&lt;br&gt;&lt;/div&gt;&lt;div&gt;&lt;br&gt;&lt;/div&gt;&lt;div&gt;&lt;br&gt;&lt;/div&gt;&lt;div&gt;&lt;br&gt;&lt;/div&gt;&lt;div&gt;&lt;br&gt;&lt;/div&gt;&lt;div&gt;&lt;br&gt;&lt;/div&gt;&lt;div&gt;&lt;br&gt;&lt;/div&gt;&lt;div&gt;&lt;br&gt;&lt;/div&gt;&lt;div&gt;&lt;br&gt;&lt;/div&gt;&lt;div&gt;&lt;br&gt;&lt;/div&gt;&lt;div&gt;&lt;br&gt;&lt;/div&gt;&lt;div&gt;&lt;br&gt;&lt;/div&gt;&lt;div&gt;&lt;br&gt;&lt;/div&gt;&lt;div&gt;&lt;br&gt;&lt;/div&gt;&lt;div&gt;&lt;br&gt;&lt;/div&gt;&lt;div&gt;&lt;br&gt;&lt;/div&gt;&lt;div&gt;&lt;br&gt;&lt;/div&gt;&lt;div&gt;&lt;br&gt;&lt;/div&gt;&lt;div&gt;&lt;br&gt;&lt;/div&gt;&lt;div&gt;&lt;br&gt;&lt;/div&gt;&lt;div&gt;&lt;br&gt;&lt;/div&gt;&lt;div&gt;&lt;br&gt;&lt;/div&gt;&lt;div&gt;&lt;br&gt;&lt;/div&gt;&lt;div&gt;&lt;br&gt;&lt;/div&gt;&lt;div&gt;&lt;br&gt;&lt;/div&gt;&lt;div&gt;&lt;br&gt;&lt;/div&gt;&lt;div&gt;&lt;br&gt;&lt;/div&gt;&lt;div&gt;&lt;br&gt;&lt;/div&gt;&lt;div&gt;&lt;br&gt;&lt;/div&gt;&lt;div&gt;&lt;br&gt;&lt;/div&gt;" style="rounded=1;whiteSpace=wrap;html=1;absoluteArcSize=1;arcSize=14;strokeWidth=2;align=left;" vertex="1" parent="1">
          <mxGeometry x="140" y="-270" width="1190" height="1440" as="geometry" />
        </mxCell>
        <mxCell id="79iyy5_s4vcbfLESOXtx-3" value="Prod-vnet&lt;div&gt;10.0.0.0/16&lt;/div&gt;&lt;div&gt;&lt;br&gt;&lt;/div&gt;&lt;div&gt;&lt;br&gt;&lt;/div&gt;&lt;div&gt;&lt;br&gt;&lt;/div&gt;&lt;div&gt;&lt;br&gt;&lt;/div&gt;&lt;div&gt;&lt;br&gt;&lt;/div&gt;&lt;div&gt;&amp;nbsp;&lt;/div&gt;&lt;div style=&quot;&quot;&gt;&lt;br&gt;&lt;/div&gt;&lt;div style=&quot;&quot;&gt;&lt;br&gt;&lt;/div&gt;&lt;div style=&quot;&quot;&gt;&lt;br&gt;&lt;/div&gt;&lt;div style=&quot;&quot;&gt;&lt;br&gt;&lt;/div&gt;&lt;div style=&quot;&quot;&gt;&lt;br&gt;&lt;/div&gt;&lt;div style=&quot;&quot;&gt;&lt;br&gt;&lt;/div&gt;&lt;div style=&quot;&quot;&gt;&lt;br&gt;&lt;/div&gt;&lt;div style=&quot;&quot;&gt;&lt;br&gt;&lt;/div&gt;&lt;div style=&quot;&quot;&gt;&lt;br&gt;&lt;/div&gt;" style="rounded=1;whiteSpace=wrap;html=1;absoluteArcSize=1;arcSize=14;strokeWidth=2;align=left;" vertex="1" parent="1">
          <mxGeometry x="240" y="160" width="250" height="280" as="geometry" />
        </mxCell>
        <mxCell id="79iyy5_s4vcbfLESOXtx-4" value="subnet1&lt;div&gt;10.1.0.0/24&lt;/div&gt;&lt;div&gt;&lt;br&gt;&lt;/div&gt;&lt;div&gt;&lt;br&gt;&lt;/div&gt;&lt;div&gt;0.0.0.0 -&amp;gt; Egress LB&lt;/div&gt;" style="rounded=1;whiteSpace=wrap;html=1;absoluteArcSize=1;arcSize=14;strokeWidth=2;align=left;" vertex="1" parent="1">
          <mxGeometry x="250" y="210" width="230" height="100" as="geometry" />
        </mxCell>
        <mxCell id="79iyy5_s4vcbfLESOXtx-5" value="subnet2&lt;div&gt;10.1.1.0/24&lt;/div&gt;&lt;div&gt;&lt;br&gt;&lt;/div&gt;&lt;div&gt;&lt;br&gt;&lt;/div&gt;&lt;div&gt;0.0.0.0 -&amp;gt; Egress LB&lt;/div&gt;" style="rounded=1;whiteSpace=wrap;html=1;absoluteArcSize=1;arcSize=14;strokeWidth=2;align=left;" vertex="1" parent="1">
          <mxGeometry x="250" y="320" width="230" height="100" as="geometry" />
        </mxCell>
        <mxCell id="79iyy5_s4vcbfLESOXtx-6" value="Prod-vnet&lt;div&gt;10.0.0.0/16&lt;/div&gt;&lt;div&gt;&lt;br&gt;&lt;/div&gt;&lt;div&gt;&lt;br&gt;&lt;/div&gt;&lt;div&gt;&lt;br&gt;&lt;/div&gt;&lt;div&gt;&lt;br&gt;&lt;/div&gt;&lt;div&gt;&lt;br&gt;&lt;/div&gt;&lt;div&gt;&amp;nbsp;&lt;/div&gt;&lt;div style=&quot;&quot;&gt;&lt;br&gt;&lt;/div&gt;&lt;div style=&quot;&quot;&gt;&lt;br&gt;&lt;/div&gt;&lt;div style=&quot;&quot;&gt;&lt;br&gt;&lt;/div&gt;&lt;div style=&quot;&quot;&gt;&lt;br&gt;&lt;/div&gt;&lt;div style=&quot;&quot;&gt;&lt;br&gt;&lt;/div&gt;&lt;div style=&quot;&quot;&gt;&lt;br&gt;&lt;/div&gt;&lt;div style=&quot;&quot;&gt;&lt;br&gt;&lt;/div&gt;&lt;div style=&quot;&quot;&gt;&lt;br&gt;&lt;/div&gt;&lt;div style=&quot;&quot;&gt;&lt;br&gt;&lt;/div&gt;" style="rounded=1;whiteSpace=wrap;html=1;absoluteArcSize=1;arcSize=14;strokeWidth=2;align=left;" vertex="1" parent="1">
          <mxGeometry x="240" y="445" width="250" height="280" as="geometry" />
        </mxCell>
        <mxCell id="79iyy5_s4vcbfLESOXtx-7" value="subnet1&lt;div&gt;10.1.0.0/24&lt;/div&gt;&lt;div&gt;&lt;br&gt;&lt;/div&gt;&lt;div&gt;&lt;br&gt;&lt;/div&gt;&lt;div&gt;0.0.0.0 -&amp;gt; Egress LB&lt;/div&gt;" style="rounded=1;whiteSpace=wrap;html=1;absoluteArcSize=1;arcSize=14;strokeWidth=2;align=left;" vertex="1" parent="1">
          <mxGeometry x="250" y="495" width="230" height="100" as="geometry" />
        </mxCell>
        <mxCell id="79iyy5_s4vcbfLESOXtx-8" value="subnet2&lt;div&gt;10.1.1.0/24&lt;/div&gt;&lt;div&gt;&lt;br&gt;&lt;/div&gt;&lt;div&gt;&lt;br&gt;&lt;/div&gt;&lt;div&gt;0.0.0.0 -&amp;gt; Egress LB&lt;/div&gt;" style="rounded=1;whiteSpace=wrap;html=1;absoluteArcSize=1;arcSize=14;strokeWidth=2;align=left;" vertex="1" parent="1">
          <mxGeometry x="250" y="605" width="230" height="100" as="geometry" />
        </mxCell>
        <mxCell id="79iyy5_s4vcbfLESOXtx-9" value="eastus2-hub-vnet&lt;div&gt;&lt;br&gt;&lt;/div&gt;&lt;div&gt;&lt;br&gt;&lt;/div&gt;&lt;div&gt;&lt;br&gt;&lt;/div&gt;&lt;div&gt;&lt;br&gt;&lt;/div&gt;&lt;div&gt;&lt;br&gt;&lt;/div&gt;&lt;div&gt;&lt;br&gt;&lt;/div&gt;&lt;div&gt;&lt;br&gt;&lt;/div&gt;&lt;div&gt;&lt;br&gt;&lt;/div&gt;&lt;div&gt;&lt;br&gt;&lt;/div&gt;&lt;div&gt;&lt;br&gt;&lt;/div&gt;&lt;div&gt;&lt;br&gt;&lt;/div&gt;&lt;div&gt;&lt;br&gt;&lt;/div&gt;&lt;div&gt;&lt;br&gt;&lt;/div&gt;&lt;div&gt;&lt;br&gt;&lt;/div&gt;&lt;div&gt;&lt;br&gt;&lt;/div&gt;&lt;div&gt;&lt;br&gt;&lt;/div&gt;&lt;div&gt;&lt;br&gt;&lt;/div&gt;&lt;div&gt;&lt;br&gt;&lt;/div&gt;&lt;div&gt;&lt;br&gt;&lt;/div&gt;&lt;div&gt;&lt;br&gt;&lt;/div&gt;&lt;div&gt;&lt;br&gt;&lt;/div&gt;&lt;div&gt;&lt;br&gt;&lt;/div&gt;&lt;div&gt;&lt;br&gt;&lt;/div&gt;&lt;div&gt;&lt;br&gt;&lt;/div&gt;&lt;div&gt;&lt;br&gt;&lt;/div&gt;&lt;div&gt;&lt;br&gt;&lt;/div&gt;&lt;div&gt;&lt;br&gt;&lt;/div&gt;&lt;div&gt;&lt;br&gt;&lt;/div&gt;&lt;div&gt;&lt;br&gt;&lt;/div&gt;&lt;div&gt;&lt;br&gt;&lt;/div&gt;&lt;div&gt;&lt;br&gt;&lt;/div&gt;&lt;div&gt;&lt;br&gt;&lt;/div&gt;&lt;div&gt;&lt;br&gt;&lt;/div&gt;&lt;div&gt;&lt;br&gt;&lt;/div&gt;&lt;div&gt;&lt;br&gt;&lt;/div&gt;&lt;div&gt;&lt;br&gt;&lt;/div&gt;&lt;div&gt;&lt;br&gt;&lt;/div&gt;&lt;div&gt;&lt;br&gt;&lt;/div&gt;&lt;div&gt;&lt;br&gt;&lt;/div&gt;&lt;div&gt;&lt;br&gt;&lt;/div&gt;&lt;div&gt;&lt;br&gt;&lt;/div&gt;&lt;div&gt;&lt;br&gt;&lt;/div&gt;&lt;div&gt;&lt;br&gt;&lt;/div&gt;&lt;div&gt;&lt;br&gt;&lt;/div&gt;&lt;div&gt;&lt;br&gt;&lt;/div&gt;&lt;div&gt;&lt;br&gt;&lt;/div&gt;&lt;div&gt;&lt;br&gt;&lt;/div&gt;&lt;div&gt;&lt;br&gt;&lt;/div&gt;&lt;div&gt;&lt;br&gt;&lt;/div&gt;&lt;div&gt;&lt;br&gt;&lt;/div&gt;&lt;div&gt;&lt;br&gt;&lt;/div&gt;&lt;div&gt;&lt;br&gt;&lt;/div&gt;&lt;div&gt;&lt;br&gt;&lt;/div&gt;&lt;div&gt;&lt;br&gt;&lt;/div&gt;&lt;div&gt;&lt;br&gt;&lt;/div&gt;&lt;div&gt;&lt;br&gt;&lt;/div&gt;&lt;div&gt;&lt;br&gt;&lt;/div&gt;&lt;div&gt;&lt;br&gt;&lt;/div&gt;&lt;div&gt;&lt;br&gt;&lt;/div&gt;&lt;div&gt;&lt;br&gt;&lt;/div&gt;&lt;div&gt;&lt;br&gt;&lt;/div&gt;&lt;div&gt;&lt;br&gt;&lt;/div&gt;&lt;div&gt;&lt;br&gt;&lt;/div&gt;" style="rounded=1;whiteSpace=wrap;html=1;absoluteArcSize=1;arcSize=14;strokeWidth=2;align=left;" vertex="1" parent="1">
          <mxGeometry x="570" y="-20" width="720" height="940" as="geometry" />
        </mxCell>
        <mxCell id="79iyy5_s4vcbfLESOXtx-12" value="" style="endArrow=classic;html=1;rounded=0;exitX=0.992;exitY=0.539;exitDx=0;exitDy=0;exitPerimeter=0;entryX=0;entryY=0;entryDx=35;entryDy=26.25;entryPerimeter=0;" edge="1" parent="1" source="79iyy5_s4vcbfLESOXtx-3">
          <mxGeometry width="50" height="50" relative="1" as="geometry">
            <mxPoint x="390" y="440" as="sourcePoint" />
            <mxPoint x="625" y="401.25" as="targetPoint" />
          </mxGeometry>
        </mxCell>
        <mxCell id="79iyy5_s4vcbfLESOXtx-13" value="" style="endArrow=classic;html=1;rounded=0;exitX=0.988;exitY=0.525;exitDx=0;exitDy=0;exitPerimeter=0;entryX=0.444;entryY=0.6;entryDx=0;entryDy=0;entryPerimeter=0;" edge="1" parent="1" source="79iyy5_s4vcbfLESOXtx-6">
          <mxGeometry width="50" height="50" relative="1" as="geometry">
            <mxPoint x="498" y="321" as="sourcePoint" />
            <mxPoint x="629.96" y="426" as="targetPoint" />
          </mxGeometry>
        </mxCell>
        <mxCell id="79iyy5_s4vcbfLESOXtx-15" value="zone1&lt;div&gt;&lt;br&gt;&lt;/div&gt;&lt;div&gt;&lt;br&gt;&lt;/div&gt;&lt;div&gt;&lt;br&gt;&lt;/div&gt;&lt;div&gt;&lt;br&gt;&lt;/div&gt;&lt;div&gt;&lt;br&gt;&lt;/div&gt;&lt;div&gt;&lt;br&gt;&lt;/div&gt;&lt;div&gt;&lt;br&gt;&lt;/div&gt;&lt;div&gt;&lt;br&gt;&lt;/div&gt;&lt;div&gt;&lt;br&gt;&lt;/div&gt;&lt;div&gt;&lt;br&gt;&lt;/div&gt;&lt;div&gt;&lt;br&gt;&lt;/div&gt;&lt;div&gt;&lt;br&gt;&lt;/div&gt;&lt;div&gt;&lt;br&gt;&lt;/div&gt;&lt;div&gt;&lt;br&gt;&lt;/div&gt;&lt;div&gt;&lt;br&gt;&lt;/div&gt;&lt;div&gt;&lt;br&gt;&lt;/div&gt;&lt;div&gt;&lt;br&gt;&lt;/div&gt;&lt;div&gt;&lt;br&gt;&lt;/div&gt;&lt;div&gt;&lt;br&gt;&lt;/div&gt;&lt;div style=&quot;&quot;&gt;&lt;br&gt;&lt;/div&gt;" style="rounded=1;whiteSpace=wrap;html=1;absoluteArcSize=1;arcSize=14;strokeWidth=2;align=left;" vertex="1" parent="1">
          <mxGeometry x="761" y="13" width="380" height="377" as="geometry" />
        </mxCell>
        <mxCell id="79iyy5_s4vcbfLESOXtx-16" value="Mgmt: 10.10.&lt;span style=&quot;color: rgba(0, 0, 0, 0); font-family: monospace; font-size: 0px; text-align: start; text-wrap: nowrap;&quot;&gt;%3CmxGraphModel%3E%3Croot%3E%3CmxCell%20id%3D%220%22%2F%3E%3CmxCell%20id%3D%221%22%20parent%3D%220%22%2F%3E%3CmxCell%20id%3D%222%22%20value%3D%22%22%20style%3D%22rounded%3D1%3BwhiteSpace%3Dwrap%3Bhtml%3D1%3BabsoluteArcSize%3D1%3BarcSize%3D14%3BstrokeWidth%3D2%3B%22%20vertex%3D%221%22%20parent%3D%221%22%3E%3CmxGeometry%20x%3D%22640%22%20y%3D%22210%22%20width%3D%22380%22%20height%3D%22150%22%20as%3D%22geometry%22%2F%3E%3C%2FmxCell%3E%3C%2Froot%3E%3C%2FmxGraphModel%3E&lt;/span&gt;0.0/24" style="rounded=1;whiteSpace=wrap;html=1;absoluteArcSize=1;arcSize=14;strokeWidth=2;" vertex="1" parent="1">
          <mxGeometry x="771" y="80" width="350" height="70" as="geometry" />
        </mxCell>
        <mxCell id="79iyy5_s4vcbfLESOXtx-17" value="&lt;div&gt;&lt;br&gt;&lt;/div&gt;&lt;div&gt;&lt;br&gt;&lt;/div&gt;&lt;div&gt;&lt;br&gt;&lt;/div&gt;&lt;div&gt;&lt;br&gt;&lt;/div&gt;&lt;div&gt;&lt;br&gt;&lt;/div&gt;&lt;div&gt;&lt;br&gt;&lt;/div&gt;&lt;div&gt;&lt;br&gt;&lt;/div&gt;&lt;div&gt;&lt;br&gt;&lt;/div&gt;&lt;div&gt;&lt;br&gt;&lt;/div&gt;&lt;div&gt;&lt;br&gt;&lt;/div&gt;&lt;div&gt;&lt;br&gt;&lt;/div&gt;&lt;div&gt;&lt;br&gt;&lt;/div&gt;&lt;div&gt;&lt;br&gt;&lt;/div&gt;&lt;div&gt;&lt;br&gt;&lt;/div&gt;&lt;div&gt;&lt;br&gt;&lt;/div&gt;&lt;div&gt;&lt;br&gt;&lt;/div&gt;&lt;div&gt;&lt;br&gt;&lt;/div&gt;&lt;div&gt;&lt;br&gt;&lt;/div&gt;&lt;div&gt;&lt;br&gt;&lt;/div&gt;&lt;div&gt;&lt;br&gt;&lt;/div&gt;&lt;div&gt;&lt;span style=&quot;background-color: initial;&quot;&gt;Datapath: 10.10.&lt;/span&gt;&lt;span style=&quot;background-color: initial; text-wrap: nowrap; color: rgba(0, 0, 0, 0); font-family: monospace; font-size: 0px;&quot;&gt;%3CmxGraphModel%3E%3Croot%3E%3CmxCell%20id%3D%220%22%2F%3E%3CmxCell%20id%3D%221%22%20parent%3D%220%22%2F%3E%3CmxCell%20id%3D%222%22%20value%3D%22%22%20style%3D%22rounded%3D1%3BwhiteSpace%3Dwrap%3Bhtml%3D1%3BabsoluteArcSize%3D1%3BarcSize%3D14%3BstrokeWidth%3D2%3B%22%20vertex%3D%221%22%20parent%3D%221%22%3E%3CmxGeometry%20x%3D%22640%22%20y%3D%22210%22%20width%3D%22380%22%20height%3D%22150%22%20as%3D%22geometry%22%2F%3E%3C%2FmxCell%3E%3C%2Froot%3E%3C%2FmxGraphModel%3E&lt;/span&gt;&lt;span style=&quot;background-color: initial;&quot;&gt;1.0/24&lt;/span&gt;&lt;br&gt;&lt;/div&gt;&lt;div&gt;&lt;span style=&quot;background-color: initial;&quot;&gt;&lt;br&gt;&lt;/span&gt;&lt;/div&gt;&lt;div&gt;&lt;span style=&quot;background-color: initial;&quot;&gt;&lt;br&gt;&lt;/span&gt;&lt;/div&gt;&lt;div&gt;&lt;span style=&quot;background-color: initial;&quot;&gt;&lt;br&gt;&lt;/span&gt;&lt;/div&gt;&lt;div&gt;&lt;span style=&quot;background-color: initial;&quot;&gt;&lt;br&gt;&lt;/span&gt;&lt;/div&gt;&lt;div&gt;&lt;span style=&quot;background-color: initial;&quot;&gt;&lt;br&gt;&lt;/span&gt;&lt;/div&gt;&lt;div&gt;&lt;span style=&quot;background-color: initial;&quot;&gt;&lt;br&gt;&lt;/span&gt;&lt;/div&gt;&lt;div&gt;&lt;span style=&quot;background-color: initial;&quot;&gt;&lt;br&gt;&lt;/span&gt;&lt;/div&gt;&lt;div&gt;&lt;span style=&quot;background-color: initial;&quot;&gt;&lt;br&gt;&lt;/span&gt;&lt;/div&gt;&lt;div&gt;&lt;span style=&quot;background-color: initial;&quot;&gt;&lt;br&gt;&lt;/span&gt;&lt;/div&gt;" style="rounded=1;whiteSpace=wrap;html=1;absoluteArcSize=1;arcSize=14;strokeWidth=2;align=left;" vertex="1" parent="1">
          <mxGeometry x="771" y="160" width="350" height="210" as="geometry" />
        </mxCell>
        <mxCell id="79iyy5_s4vcbfLESOXtx-21" value="egress gateway" style="shape=image;verticalLabelPosition=bottom;labelBackgroundColor=default;verticalAlign=top;aspect=fixed;imageAspect=0;image=data:image/png,iVBORw0KGgoAAAANSUhEUgAAAQAAAACZCAYAAADAbORZAAAAAXNSR0IArs4c6QAAAARnQU1BAACxjwv8YQUAAAAJcEhZcwAADsMAAA7DAcdvqGQAAEDySURBVHhe7d1nlwRdVf/9wZxzzjmDiqCCGFCWYHhR9yvSZXwABhAMKCrmnHPOOfxvPw1f3NbV1dM93TPTc03ttfaq6uqqU+fs8Nv77DrV/ZL/9z90s9HV0FSH/T4vj//3f//3jv/rv/7r5j/+4z9u/v3f/313/L3e6712/JKXvGR37tx2fO7P83Hnzv1L0320udHdaAOAK6Olo3PwHB3/53/+53scHv/rv/7rzT//8z/f/NM//dPuc+e7Nkfm4O/3fu93877v+7677Qd8wAfcvP/7v/9u3xa/z/u8z47f+73f+z2gEDBcmjYAuB7aAODKaKqDI3N4Ts25/+3f/m3H0+n/4R/+4eZv//Zvd+yz7wOCAIDjf9AHfdDNB37gB958yId8yI4/9EM/9D37H/zBH7z7LpCYYHBXZ53jWLaxAcD10AYAD0hLUfe5dH7Jy0j/L//yLzvHx//4j/+4c/6/+7u/u/nrv/7rHf/93//97hwMOIrgHDtH/7AP+7CbD//wD7/5iI/4iN1+DCBkBtj5MRAICJaZQbykxmU7v9937r5jGz0cbQDwgDQdA8/onuMW2WOObut43wOD2LHOsR9ozAxANJfm5+CcvYwgdryt78oOAo55TSDRdGE68Rwjmt/tc/Z9xzZ6ONoA4AGJqBP3nMtzXin83/zN3+wi+V/91V/d/OVf/uXuc+m9aB8AuCbwqB3bjskeplo5aZG89H7JACIwkBF81Ed91M1Hf/RH/x92rOzBeU0XtI+65z6TWgOCDQAelzYAOJFOFdd0ihwWm6vn0FL3v/iLv9g5/Z//+Z/f/Nmf/dnNn/7pn/4fEBDlqwEU3ZEtzgkP0ezLch84iOyAAAB8zMd8zI4/9mM/9uYTPuETbj7+4z9+t99x5zgfAwL3j6NDjr78jPYd2+h+aQOAE2kprvl5GnBR2Dan5/BF9HhGeWxOH8sMRHtOr51lFJ8FO+w7Dqgfsy/1o+zAFs8ag/7VZ+2UDZgCcPYi/0d+5EfuWDbQvu8UFTFAqJ9LUFrKaunwy88b3T9tAHAiJa4ptvYzap9zNI6VE3PwP/zDP7z5oz/6o5s//uM/3kV6DAREeAwkOl87OTzH4oycbM7FcY/yisRL59OXQKj+cH73WtYZAh3XYO2Y72tbLYCzAwTZwCd90ifdfPInf/LNJ37iJ+4yBJmC72YBcSknnKMnr2jub/QwtAHAiZS4MuYlMWKOz4mwQl0OJr3/nd/5nZvf/u3fvvmDP/iDXZqPRXsOibXJ6XI8TpfjibqYkwEBxwOCOSffBwDVCQIX26YfWB/KQHwODJpyYO2WGZgGfOqnfuqOP+3TPu09W8fr87JQOGU2nX+53ejhaAOAEylxLcXmM+ZsnD5nUtAT5efc3laxLydzTVGcc+VAcdX40mzHOr/onPMHHtOZ9CsnBgKBAeeWBVSL0Bes4BgHXti4AIfr3a8pAacX/Wet4OM+7uN239Vn59eXSfuAYKOHow0ATqQ1cXHinEwEleL/yZ/8yc3v//7vvyfqc37fcSyOJDpi0bzimmp7+xwsANj3CG5Ge9ucaZ8j6bc+zn4Cgfb1p+yA05cRtMagJxNYwRIY1H99LDsxHfjMz/zMHZseBArOmbKb+4f6vdH90gYAg9ZEsWaYzo9FxaIpZ/nd3/3dHXP83/iN39gx58kJRUSpPObsnMWces6nRVCOgzk+h8/p9Wmm+adQfdDvxjaBQTbA+bGxyF4wUDN1UccwlsaLgBOQ0vfP+ZzPufncz/3cm8/6rM/aTQuwsei7cS/7XR/W5Lx2fKPzaQOAQWuiWDNAzlI6LbI3p89RsCxAxMTO5fBS4lLnyaK/484x5+f4pfo5Pp4p/iHnmOOZ5zked9x+wFB9QNovGzA2rFgJCBpPGYHvZA4YEARgAE1t4FM+5VN2wGZqgI2rrKV7Y9TYZn8PjXGj82gDgEFrolgzQI5fFOQYv/qrv3rza7/2a7uoz/EBgSjavJvhVzjjFEV9zt88nwM1r9/n9NP5j6HG1DWHrnUuBmz6XL+bHgAF0xcOb7y/93u/t2MZQfUN55UNALTGaUogK/i8z/u83XiNr7pA2QeaYz2mzxudR88eAPYNv2P7DM93RUrzYHNlLNr/3M/93I4BQPPmHL/0mANwBA7BObC5cwU9DuAe56pl3/XnOhVAKNIDgN/6rd96D1fnMO6Aw5gVA/Fnf/Zn37zsZS+7+dIv/dLdmH1HLkAuANCnMoP6uuznXfq90TptALBn+IdEwrhFfNGQsZfqi4ScADuuDZzjS4mlwaIhdozji5I5AuYAXbuPcoBDfZzkvOk0a/vH0HLKAwSwyG9tQ5lAhUJAEbABAcCnPvAZn/EZ75GD6U5OPyN/jGY/5/5G59MGAGP4h0TRdz3iwwz+F3/xF29++Zd/eef4Ij7mKCr4mNMzeizymeNjdYD5/J7xY9S9lv1ZGv/8fn53aBynOFDnzv4Ym4gNCJr+AIPqAsDwN3/zN3dFT+AAKJ0DCHN62cAXf/EX33zRF33RDhhbzAQEuo97T47m/kbn03v/f/9D795/1jSdZulAPjN6kU9hjGGb40t9f+mXfunm53/+53f7QAFAMGYRT/Vb1GPoL33pS3f7DN4cWORrvl/kW9J0gNu+nzSPL/lcKloDLU6tWNnqQMDmWACBZQEAAhDYV0MgRzKS+Ri/ftnKgJayr8/L7UaXoQ0AFrQ0QCTqiWIq4lJc0U3U/5Vf+ZVd5K/4VcQX4XL6z//8z7/59E//9F3KL+oz9CI+Y14a9L77R52/vG7t+KVprW19xmUxxtfCpVnU9B0QAAxAogzC/gSAtbHsO7bRebQBwKCcbzohg2OwIpdin7ku5//Zn/3ZHQBwfo/HREXOr7j3hV/4hbsUV9FL1Of8oiRnYOSzyBXNey5pzfBvO34u76NDx41NZOf8ahvGzPERJ2/6RJYcnzwd4/wyCFMB7cx6ALKdvNHlaAOAFeKQmOFKXxW2pP0q3aX9VvkxYCT9Ffm/4Au+YBf9RX4Vf/P+Ij/DXjr/sY7f/kNwdOj4kowrADBeBU4pftfKogKAlhXbB66mDdVEnFs2MKl2TqW7XPOcaAOAd1OG0pbjS1c5v+KWwhbHr+BnKsCozec91+fsHB8AyAIseBEBOcSptM/Yr8GQZ79u28fAzVbmw7mbInDupgPkDDzIEhg4n8zKHLqmNk+lu1zznGgDgEEZGWaQnN+8X+RX7f+Zn/mZHQBI+6WvIhXnF+2l/FJ/QOCYegDDZ9zH0Lz3Plo7/hg0+9n+5OnoHL93GnJkwMD5TZ3IOFkDADJzvqygNmy716l0l2ueEz17AMhol4bCQKWoor81/b/wC79w8853vnO3L311vnkuh/+SL/mSnfOL/JxfVsDwT3H+aPZn8kPSvvsv+bbzct6eFMxMKIcHAGoBngoAWtmAqYDpFCDQhkxgTge0/RToqfRzywAWxAgxg7S459d//dd3S3w95vOMm/MzUEt4Pdvn+DKAXnhRAJMZ5AjRPoNYnoP2nfdiIE5PrnN+LxMowldLAZyOkYPjAMQ1aJ+8rpWeSj83ABjEIDFjFf05v8gv7ef8nv+jFrOY73N+lX6AIHqJdMtCX9Sxfd9Fa8efKpEnMi7RPBk5HthyftmArGvO/ZsO2KJDcrs2eir93ABgEMdnjNJS83xFP2v7FQBLV0X4nvMDgF55lfaLVKX9Geup/FTomD7n/IhDc3wAwMk5Pir9t4KS7CsI2pK1pwkBgDauTUan9ufa+r8BwCAGaM5via/FPp7zywIYp7TUs2pzfAU/835AULW/NBWlZNtrU/hjUvIo8pfq97QFYHB8nxHHx4Hqsh5wDXSqfq/NHjYAGOT5tFTffN9rvZzfIz8LV0Quy3tFfABglZ+XWjh/Bb8MHC23G/0vAGDO7MkAufW0heMDYdMvmUEAAFw7f9YDroFO7ce19Du620/KXIgg/il8Ku1rYx9LOT2Cap2/xT7Sfo//PO7zvXTUoh4AYGmvOoAVfrICxplhx8+Jjhn3/I4TA051k34xCMumRHiAawomE+v3BqoRyBz26fChOdr3HX4q9KgAgAiLg8Wlh5cUZG3hZfsijbm9F1ak+pw+oxOVRCiFKA7f66wMlRHX34320yFAMJ8nW1HdEupk62Upx8jWa9UyMIBs4RWABtSb3C9Hjw4AOWRKvTQIdL1t7c723U/aCQAs9/UrPgDAmv8AwOO9fQBwqT6+mGkfCDhGrqI9Z5dJJVv7Hv0BZlHfugsgoDZjquA4nSX3x5L9i0XvDw4AU3EJ0HY65ZI61/eULwp4+645IxbF4475vvNsM555L8eqQosyWPop+jjX3J9RAgBpau/0S/vr15IYePzcaN/Y57HJsgD1E09QyFZNRTbQLyTRZVMBegEI1QroL9qng42Oo0cvAlLeNIhpIJFzOCNnpXyGUeHIfFH0nlupou8nIEyjmW07j3Ep/kk1W/ADMDi++f78GS/GyflFMDz7Hc39jQ5TIEqGgJ3+6CyAti9TALo9QiR3wCELS9aPJfO1+556/LHoap4CEAwjmCCAGAFjKPJP5+fwKsYKdfZt1wDAtah7RM71Vh/Hx/YBgvtzfgt9cD9jpXjFIBnhbGsqdu5vdJjIiiyrqdAXXWE6FPXpf/6Aiq3PLS9+THmv3fvU449Fjw4ABJJQKBpT/oz0RXfGIFU3H4xV7W0dN4eXugOCCQq41FFkx9r22XUq/j3y05bzRRhR3yM/GYDUVKpqzprj1/elUpefnyutyWdJAEBkp/syNVt6AMbsQV3AOZye83sPwzEBYkkPKf95r2PG+5B9O4Ye/DcBl7frs/S+iC0qc17M+TkvLrIX3RlGc3vtMBwCZlBxzipyeJSHGQ4Hx9rtN+wUALuXVP9rvuZrbl796lfv1vv7jF17G12bkq+B1sxsHqdvOuhHV97+9rfvmN49MsR08cpXvnLHQJmsA+PoIeV/6n0fsm/H0KMDAHIM4kvnRXmRXPHHIzkRWVTHDCQA4PizoFc7aBmdsejBeUVwHBgAEQaHgU3AYcXf133d19187dd+7W4K0KIU7dxG16bka6A1M5vHTdXK3ADAm9/85h2zBbpSA6CLr//6r9+xwuGcjkUPKf95r2Pue222cTYA3OVyDuu65vVY1JXO94ObKr+Y8qXpmINyfGDhWsKcPEn7kxmI9BFz5ADAdwGMNkV5BSePpDj/a17zmt2S35lRnELXpvBrIDKP5r5MrimalZg/8AM/sGNTs/RIL6973etuvumbvmmnl3QKCNYoHZyji9nPSbPNY9q/Nnt4cABofoc5dHN3kd58rzm9bAA7p6kBB6VoLBLP7Yz6ZQYBzL5swfkcmtFJMQGQaYLCn8hi3v/lX/7luz+ykA04t/ucQtem8Gugpc30mW7oAyvI/uiP/ujN2972tt0UrSmhQmwZADBQlMVAYNK8R3Zx37o4pv1rs4cHB4CiPeboFO3xm+q7aA8EOH6ZAaPIuSmZshWBRG9z+CrDRWjE2YsmgYdpA0fHPpdJ2AYS2vaSj8KfN/0YmCjjHYCAp3scS9em8GugfTbjGA6kPYr96Z/+6Zt3vOMdu2ygaZrin7rMq171qh1Ie1RLP6Z1UW1FMzicS2ttuN8x7V+bPdwbAMzj9jkl5nwivsgvxffGnR/csOJLGu64c0rtcnLzd46vEs8I+tko35UCYlQU4eA5PcApqzDPlFmUXZQdaPvlL3/5js01FZksTXWvJQAsx72m2GtT+LXR0k76LBioA/Q7jEAA0/crXvGKm6/4iq/YgXQZG9uIasOW/AFAIHBXqq01Wn7/VPR+7wBgK8JyNk7I+S21FfGhfMjeHByL6M3FWwCCKRnbh/jOw6YBU8m1EwiUCZR56EtA4PPMAER/zLC6v3uVYbhH45q0pvCnYgiPRUs59lkg6D0AAOBn2P0mI6IfTwP6TQbMXtBsj+yXfFeq3UN6X9u/ZrpXAOg76Xfze84v6mMg0NyOw3Jsqb1IbN6NReAJBD2+K+2fjp/Qu3fppLY5eUuEOb2nDT1ZAA5YRlHa775lGO4179M9Jq0p/KkYwmPRUo59BtKyAOwHWasHsCVvZFqVCQBkAmo1pgHpnMyX+kLn6ELb8ZK0G0fn3Osh6WwAmFRTCYrTicIiLceX5ivoUChW7UeExdmk3Nh6ewrGnv2WDQCH0vBS8WOJYeiLPjEiAIABQPUBju7eCk0z7c+QbKOl2J6i8q+NpkwBsiyNjkwDfvAHf3D3RMBn4IwBgLUamN0E+NpJB/Y7NrdL6vyp69jnvm8bzeOHzrtWujcAkFIX3UV/K+0stpHSSfnN/zke58besON8mDJlATjHl4aL/BTC+U8VsD41NdC3agO9J4A5e9mG+3UvWzTvuRTb/O6pKP/aaMq0+o1szRSgR4IyAlM12SAA+MZv/Mab1772tTu7AfDpt6lfuu1z070JAjk6Np2s9lQdCjfVxIeCjzbo/6nYwMUBIIbgpXAiPxQX9WUCKZZgpduldNbbm3tL56bwCZ0COOg5wq1vjKRsIFDA2p3K9jmFLkk7k+Y5d+3fc6cp0+o3WJH4TW96080b3/jGXd2ozEwd4A1veMOOFQLpswyv4FPtCbM7dul77acnDq09W1M+4NJ0tC2WpeJph9kUQPE5IHkqNnAnAFi7xPGcSdpfEUfkr5oLEHIwUb/Hbh7pUKJ5v4wgoaKEegydKvg5ln3juosin4ryr42m/Om+iK763xSAPRXJ1Ws4/+tf//qd3QQYHF8RUY3HNCIgwGV+2kZ0FQCwSQ6u0CzL6JFz+zGQcK5rpl1qy2ftPRUbuCgAUFYIq+DXXB8AmO9b5015zeEoTQZAkVK45vqUQIBLPoaOPS9ajmXf2E5t89TzN3oXTdkDgIIJp/+RH/mRHbcoSIBhQ9YDYI+GRXlO7rse+TpmmscuAwis3fRUgOG4MkAOHhf1Ob6AZVrKTn3uUXSZaoCAn4oNnAUAbRss5074Kvxe5Pipn/qpHQCkBKmUuZuo72275v2EGqpiyghJTxHmqYJfDv9YcRy6z6l92OhdNGVvn5MCAtNGtvQTP/ETu1qSLFJdSZ2GLWGOKOLPqI9z9iXPe2VjuGygbTYpMClIq08pEtu3BTw9ngYC2nhKAHDn14GXjmLAhC31oiDpv7TfH2so+DmfgKzcMnezxNaW80Pyqu5RgsRL0tYxAj72nLjPx9DyvGU7G51OU4bTvkRx60c8AWhOz8lNA5xra1VpPx/G3gCEa4CA4OMcjt+0cnmvMg7nOV8W617uWTuOYd+bQrim9gpWaAkAc3/S0odOobU2T6U7ZwDxJErxfN9cX+HGvvkb4fU6Z89vzf3N+SuyAIcEql0CXQLAvN8xAjhVSLW/HNc+WrZ9KYVs9C6atmDq6O/Y/UkLuzINwAKOzBGzl7JM14jcWBovU2BjKvtz7p7O3IdDc37cNEFb1QxQqb7031TAlEBG0JoVxev64161v2Ybx9jZGl3K3s4GgHk51P3xH//xmx/7sR97z3N+2QDlzDX2QEDln8BSlHNmewYY76NjBHCqkLr3HNMhmu2feq+NDlPOb8uGBBUZZYvIAIHAklNyajrApgNSc45o2yNlwYZj4nk+5wceRX4OX5Yh+pcBVN8CHkDFfQBAP2jaU6yWJtc+3kfH2tk+WmvzVDp6CrDWWccJEGJKw6T8lmyaq0mhfAcxOf7LXvayXfQ3d+L8FJIiIvvLFGrSvuOnCuO2849tb553ah82eiHtszHHOJ7aUgU+83xOyRl9L3Unf9GeTbEtU0vOyCkFG8XmHBSL2M3lTUFFc9x7JrjM1FMrAcp9AgkAoR/2y1bYrXOBQ9PZQ7YcGcOp9nMpezvrJ8F0QspEKRSiWAOppf2eAhAGJCTo1m5Dxx6lJKTlYG4b3KnnL+nU89dotnOpNjf6v8Q5BBdRmfNxPPNytSbfifIcnlN7lFym6WUuUdlxTu4cTg0gOCj749yyAXaKq/r7nt06v/YDB58r+HH69A6kFMEj3yHtsnN9dcx2Hz2WDZ/9m4AGzfml+wownF/Vn5IIivAgLwCQBUBeQpb2LwfR52MGN885VRinnr9G5/Rho+NJkOFgtkVeNie69pPtIjzn916ALec31SzbVMVnj6XuHL/pA875RX3nOT/nByDu43OPqTmyPlV3YO+2UdkAwLENACL2co79XMre7gQAE8WkQJxf9O/dfvuEIbWCwOZI0FkqRpD70v7I/jGDWzvnmGsnHWrnNp60/LzR5UjqXdVdwAEC7I4zyygFGDYmyIj+7MzcXNTmsJxwOn11p8mcNCDQ7gSCpgWOa8v5+iQzAUpAAAD4zA70EwC4nzacn/NnJ4emBsfY0qXs7azHgJgyPH4R9VVmgYH0zJwJKlOKdEzk5/yEqPNrjNoeorVzjrl20qnnr9Gl2tnohVTAyVk5qmkk5y+wCDScXpTmxOzvmPn3saQP2qoPAANIABb3AlDIOYKfz50b6bfgV7/W+nZMn4855xg6CwCgmupoS30BAOdXrKEEzv9lX/Zluy3npzSoGCWEyR2/jdbOOebaSaeev0aXamejFxLZchy2I4Cwo6aWgsx0fk7J6TjlJXXLafVhThUCG85ejYLz8wHZgH7k9LZNB+rXWv+O6felxvYCAAhtD1HOb+DmYx7JqP6rAUjNpEdSJ3MxAGA+JhUKmZEBxJPuMrC1a+7S1kPRNfft2ojz5UxsiCNxPkEFEHjEBxQ45oywd6G167TJeYFQIMCm3Y+zs/uKleoTpirO1W/XOd80ogDoPmv3Oqbvdx3fko57w+bdxPFz/gbboxnPTE0HdIyCKGXOvwjKtcAhkLnUIDZ6HpTdCCIcC7Orh7YjYACMZAHqDKYgAp2A5/Gj4+wcEKiLyYwtZuIjMgR1g8by2HQrAOjokiuAQD1TgAAAGFAGZAwAivyUhYBHBZGNNrqNcu5sDxWNcXP9hyT3BACmIwDANAQAvPSlL90BgKAnOzYVaNViAMBnAMC1+MBBySVw1H4AAMk4vuqnLecHCoQjHZtpWYpCBj7bfbGQMR3D0b7vnjtHc39Sxzk8exL9bYHEQ2YB7uXeQICNe0zYakDFbqAg6KkJWB3b/1vICPgK3+FDkxrDQ44D3Qk6oZvIr+JvcD0CoQyoaH4GAOw7ltM/1iCviTL2jdd5SdnLtJ9rsSH2bV7fdEBB0oI3WQE/MB7B0SpZP2YiEwACSwB4LLoTAEhhDAIA+HmvAAAyi/gG7tlpADCVOhW3T9kvdsrIN17nfbR0/vixiX1X4Rf0AIAFbwDAFBjtAwBB9BrGcCcAgF4GJa0BAOY2qp6EIfVpCSUwmACwT3FrCr8ETaOa/Fj0mPd+SpScpr3s43nOqTTbmbxGa99Vj8juPY5sCTIA6CmBp2Wy5WoB/OWx7REdBIAplPYxAFDxh2rmOKYDEC00FPmlRFIjAiCkybX53Cj5bbROp8honnvKdfdFCt1qAh5PWgUrC+YHbF7xj68Imj0NAAJ86TFB4KgMYCloc/pTAKDrZzvouUbEpTw2/l++C81rz23rHAoAOH8Lk0wN+IVH5pwfmzL3NOCxawFH/x5Ap9may3z/93//jr362wooA+4fdT0SsUgDE8JSMZd0/lOVvXa+PlWwXO7HG90fTRspU5wZY9tofp66OUdPy3vcRvN8QVBU59h+s+CHfuiHduzn8dgStnTZvxv7OXMrGQVMLFCeQqf2c43uBABe9vme7/mem+/+7u/eAYABY0UQAOB/9b37ryqKJwBE5yhpSecobRI0ToHLre9K1xoL9vmSY3nOJFK2wIdTyCBzjuSN2i5pqYe76GWt7TWa52cj2O9hvOUtb9n9kKkVsjJmdTOLhvy1OQCwL1PGrZM5lk7t5xqdBAAxAPjO7/zOHfsH19DN3Ifz++vmJQAs6cjbHkXnKG0SR5eayWZsYxlOQGCc1TLQlMtG5xEnUDhWUOMUFpGxHSBQJnCbrvfp4RTdnGNL2QEb8VasvzPz61jAwO9jmC57gSkAUCxUOMTGeAqd2s81egEAHBJWA4Ro3/Ed37FjANA1AIDzf8M3fMMqAHTuofucSmvCWN5j33mUBbGlbxxfgQZ7VAO1seMquUAgABCttOczvuR4niuppqsfYXNpU0pcPWlZU9pH9DC/W9PL2vG1dtdo7XxvyPpF7J/8yZ/cTQcETaw24J+M+IjpAP+QOQO9U+jUfq7RQQBYCslnfFsGMAGgGkBUm8u2z6FDxrCkzm0snFoRE1up5VGNR5uWcXL8nF/0BxLGyfmLSI19o/OJc4uEWPRXRcfsiuNgtkT+AfA+3S+P7bODNfvb194hWjtfneyd73zn7l+NAUDvBBhP/2foNXmrCI0L6J1Cp/ZzjVYBYB5eHgMA3/Vd37VjAMAxMGeXATQF8BkIUGa0r/1zaU0Yh+7hO447q7PG5c1GKZtFTqX9pf7VAJoCuK/jjl1yPM+VyBQIYI4uMuJ+SRoDg+oEayCwzx6W+lnT15otrdHa+Z73e0W+f8TqV7JlNq985St3DACsF8AzSB5Dp/ZzjQ4CwPxq7qtqft/3fd/N937v9+6KgCKkeTJ0m0VAj0OAgEFHs/3HIvcGWBzaIxnojP2uAUVhczZCnoJ2nc85P3bsoTKAx5TZQ5DxxbIAdoMVy/wNODaHrnBmypAecDT3J035nSrLtTbn8dmm+b6fx8MBgV/KVuPw4lC/k2HFIJ4+cgyt9edUuhMASJH7rzZpTnNmKOZvml796lfvAKBfXW1JJJrtPxY138civd8y8LvzCjfWNpgKiPqU0tuMRf3JlLCU06XoMeXzWCTjqvBqv4q6LJKztMbeCzd4Rs3pEGvOMWV6qnzX2pzHZ5sAQCaJc352po7hETm2ZFgWgBUCT6G1/pxKdwIAg3vb2962Y3/W4DOGyF/5lV9581Vf9VW7d6OlNhBbZhDN9h+LGBfAMu9X0PSXU/7PQOEG6ZsI49VOrBAlLS3tnADQ+fdBy3YfU2YPQRzfktl+9BMYy8Q4jWkA5jQ5kOnBProGANBvzt+vZQEAQYaPALMALZ5B8hh6cACYRDnveMc7dvN/qMZxch6/yvryl7989+OMpTcQHOn0bHOt/XNorc0pMJGfcWEpGiB761vfustsgBWHl7nUf9MYzk95VaEnANwHrcnpPmR2LaQek14U0RTNOJBsjA7M/wGADFOmSUeIHqYu1vSyJrtjZLrW5jxeO7bG0O9kAoCyTPbD+UV9ji9Q8pWrBIBoccou5VfQUNyYzLEMBhtcSKfKier0vntcitba7N62FmSoY2DzfY9rsKzAs1lslZbsRaoJFER+ysvxL6WA2+g+ZHStpJYkK6MfBdnSZnWang7QjToTpp8yM3qJ1nSzJstjZLzW5jxeO7YAgPOrLQEAmbLpsiAie+H4fAOg4aucAqyRZ+MUJOqLoJxHRiB1oyA/jmBQCh3+BJQToTp9zD3uSmttdm9bBiU903dABpkZmvlmFVr9V8TE6gD70v5LKWHSfcjkqRD5m55h9hUwA+oKzaaVPUdXHJzrA6I1vazJ9hiZr7U5j2untgBAxWUA0CNBfZ1FwH5I5OqKgPuo7yjCHAdLc6TQljx69GHOzOENTD0Am7vp8ERpbR26111prc0EZusZP6fHMpeqtdDZCi3G1RxT9O8ZbW3cR783+l+52gIAq+jUZoA1nWGFZWvpraZjY6rq9CMLuI3uQ2/TEbXfPfhGU5iZAagtCTCveMUrdkGGb8g2H+sx4FFvAy6JI/fDH+b30hcDowRILRMgACm1wo45HHRfKuBSg5ikzdlun+dxj+1EGVOW+qdv0nwgoOqPl6nlVPBGl6f0Y0sXUv6WBovwPRWgg6VOr4XqExtjXxWbBU39Ng5j6gmTjGDa2EPTyXc2iDUAMDgAAKk9Fei951bQ7Xtefl8KnMaxvId+cPoJAKj5JIOjmCUATKr9je+HAwDRna35TG/Z0jz3mqg+ASq21SPyACD7uloAmIKdPEmHKYfTc/7YZ+eq5soCzLUNXlGHsxHKQ9Oy7yhDkgWUnSDjCgSq+E/lUCB+bFrqxXiMwVgAcMAW++x4ztMYZjtrfCrph3v19pt7k7Pj7n0bdU9ypwcOQhcBQO3cRQ/njGuNson6Y6t/dJEf8AEycV9j6V0HaT8/uioAOJYSJCVxfo9kzM9a9mvwMgGP1qyvJwgoSDjHGMKlaBpKBuSYvjOqOKNou6T6Hc92H5P0hYORt2hj6kXe5tCxzx7dSkU5JON03alkzBl4MpjsWPWh5r/pXv84QfJ3rv2lQ7dFdME5chDfdQ0wW1772FT/yLforxho/MYuoHB+gZLz23+yAIB0HKJNAKiYEQAwgIyA8T2Gwtwvdn+MOH5RnrFNEJhA0LUZX5/vi2p/yfvIWAAAgxNpAoDWZmAgzBBFZA56FwDY1590Offp2PQPACjepXsZgX52X9spT9Q2ogM6ykG6hvNPALgW0v8yywCAPozfMb5iOgMABErbJwkA00E4kHTGs34AYEGDrMCADZwBiEIMECgwvhRHYEulPxTpP8Hvc/59NPt5n30+1HbfkR9H5tBA1otMFs5Y1Wg5M+crAseOAwP6qEC7jMr7GLVF+76jS4avLX3SH/f3ZMV99a2akH47N/3XRvtROsE5SPdqO9u4D6pfS16jqRdjNQXmA+SMSv05PiDg/PxnzeYegu7856BIxw2a4jMCA2eUEBDiZVwGDxwM3ueUG7Xf8cnn0mzDvijVG4CAiTNgCmkhkJVn+o9Focj1EzguTce0ycj0mzN7zszRLJqxpoHDeW4u6nssa9tYfeb8DHQ6PsBmiNGakS/lGGmHTEV597O4yroK+4y/KjjK6FHRPZlO0pa+Ag5jZVOY/Xj8hz2m1d5SR/dNazoyRn3UZ3ohB1uyliWzqf7K3Hbf+pJj6dTz1+jkDKAbt50ZgDUAngqYBhgUp2KMIhDjg4gMRXawjAKTtH2pAUba06dpdJP0o76s9Wkq69L9m7Sv7fqHGRrnIFfPl73L8OY3v3nHnptbot3CE/t+lMJaDb9PZ72GY0BDZKYT+pjtR8vPKDkkAxwAlPKm855/e2PUmguZoIio//Tv2pniL2nZp+7X/deueyzi6OQJmIGfsQqESABsOTPHB7qN5zHppAygzi477bMBMQQIqOAkykj3bR0X/T02JAhE8aF2glhr/1ya7WNK8RYgZrAMF1iJJGUAFOWzceln1yLAZUzGx5hFOazdS3KZVcRpOCsZiywtYpLac2bHfe8arH+zjyKxdqdTiaCiqrHO6zh047LvOtu4z7ZkR+eYk8tEsEjoHNFcuyr69E+mnHdG7qkf7BrX048MgDNh188MQBuznfugCUBL8l1y4/zAz/SHfuhE5qV/FsdZuWjhj30rTE0DGu+pdJdr9tFZU4BJOsRAOTyj4CCEwgAcn89yCa3UzXWO4wRtiy81SO3Mthi1jKSUmAEDAX1iWPsAIDIujmmMroH05t4V2y7FFc/ITh9Qc0uGxcGk/c4lU44hC/PykiWmfm6qVWbVZjx/NqbaAgwBgHsAj0AbOBoXh172bTIZ6o/+2rfFnJacsovIPTBy78bmvBnR9wEAgAsA6OghAGDa4rQjx8jd2MjMWDk7QJb5kJ1+G4f0X3/pBQhwfsHQ+FFtnkJ3uWYfXQQAKC4HzuE5in0Gy+F8n7AMvMcgjptGpMAA4pI0FYf2AQDWrzKA+QbgNC5j4PychIIpmtKhfsZ/CeZc+qQPTanIUpQFNr1eyknIkVFxeEZmGbMt53cMmAXA+q/vxs44tQ0cjJ1ufO8+jUtNYen0S9YWwNAXPDNA7bGDHL/j7scxgJKxsYElANCN9h4TACZNO2KnAQDnB6Zk0bQHcBqDsbIl+vAbGXTC+QPduzryXa9b0tkAoCMpEBkwIhyOxpg4DCKklF8V1PWUh3N8x+JL0LKtYwCgDGBpXPrveum0azlIaThDvSRzGPNFhq4P7ldkNscGOoxPhOcUXjFt66UZY8BqNIGs/ktVGSt9cH7vO0jPgTYd0JlxKWIZl/vmjLb61jHM4TmndjFZ0nlO7z7tO85e3FffjE+/OMOUMxkHKO53aQA41sbIY2mXPnN8rJ/Gq29k1huMPjuXnXtr0Ruy3gCkK85/7grA2/p9LJ0MAGs3TjA4Y0vpwMBnhsBgEUP0mRB9lwIJxb724nNp2c4lAABTsvQX2jNUxn1JJkfRQ3QnF07rXs33nSOK9l45x9Dv0v0yGO3YMjz7ruOoZMKJZAHORb4XudyHQRuXqA3wbH0Xk8Hc166t82zpmrwAi3sZA/vQD45gLqz/+rYEAG3eJwAcQzl+W/03DuNh1zIbfQKSgoCaTJkgojtA3Cu/0n+6SSfXAAB36sHazSmRQik2RzIn9XQA4jEKRmyBiAo1JjBzJ0YDEAibYBJ2fC2kfwwgANNvxlnUviRrV/sMjexEWs4vC+BcHMm8PyPjGD6L+CIPZ+HcHEXqCSSw8xkiI9Q2ENQmUODEjrkv4/Yd/fh+csdsc1Lna8O12uEkZRW2yYtzu0fgIEBcK+l7ANBWfwMAOmHDnqyU+hsj2QKAfvIL4DXl4SfXYtNHA8DSGfcNAAozOnMchij1AQLmoYxQhCU4QpPGKmQBA5FG9ZQhMSDGXnYwFXAtZOwAipKbznDGS7N2RQv34ijkkpP5TNbkKupbiSlTKPq7Tt8ALxDweLZXtRkmY/Q9J5TyAxtOy7gbl/bri/0lz+P66r6uYwd0lvOTl2P6tDxvCfTxQ9Ix9zUWtktGskWAJ5iJ/gCg6ZJMybjIl07Yv8hPR+RV9H/oMa7RC34P4BjqkrVLHS/aY85OQNhngsSMs1/dwVCS0AiLADGDOUZBh2h5rajmB0ywORvUxuajb3jDG3askJZxU1ok8pYOMwLAhTnRpYkzq+Zj9+2fZsiQA2Hy8/NY2D5qrHPMdIIZqfUC1gSYAgEHhgkc+n06Ecp5GNg03wUOU5ZtHQckGJCQB3lyFN+5r/sICth4/CCGn4+jc3YAFDhGJLuYv9mg5iFYALJv+ZZv2elIZN2no3No2rT9MhQBSeaS3rPtpkrYOcbBZgW9fviDXgTFWflHUz+n0jnXTro4AHSMMTQ/lCaqjmKK9JnxEZh0FYtKoaV0lUEyDkITJYoWd6FptGgfADBaRsq4Xv/6168CAEfQbw4pGmQUAO3SxDEyHEb3wz/8wzvnNccEVpih9StG5LVmGPTiO1MIQGJhkP3k6lo/UoEVBY0J0BkrB8gRJnUvugb4mBylwlhG5xpMvwEMAKBnbGwAh/PrS3QtAFD/gVk1iaK+PrFjWRmmr7IsfVP1xwJagG2M3WNNV8fQOddOutg6ADSFx6gohXIMnAEh53CWDIYjES5Hck5cW/bNtcoacBEJdz4ltZ1cO1PoZSfLIiAFVrugNP3H0zCRsTFY51eld/6xLFXH+77jKIycEzaX12eRlcFhUZlMRRtZkvs3p+ewa0zWDLU6ApkHaNpzfxG6zItz6o/j+uu7tnO/vtI1mcuGyFW7+ijDADA9ClOrcK32fR8ITaPWtxwO+Bm/vrvHviKg6907e9hnC0vuvOwomyInfQfwbAUYGg9w6wkMMMKCGftkX8YDkAEcAFD/6rFffUTGea4Dn3t9dFEAWOsU4WBCYFiMjfO0jygEESZnZOQUT8BY3cAxUYlSKMe5GTZgEIlsfe5Yyr0kACDtUGjsnEuwfhqTPuoTw+cEUkw1E5GHHBCZdW/7ZENWFeeMjQxxziTbYcCimOPJEtGHaExe+qBN/TFWx/Hsa2N3Ts5TikxfvgMQio6cYhYqAWdpv/bj6BQAYEP6QOfZxbSHfZyTO9c1OTuZux/5ybTInbzIvpWXQEC/AB05AECR3xj7QVxAAOQAoz5emqaszqGLAgCqY3OLKam0laNRfopLETjHZ0AMGS+dP+d2nW2KZoD2JwAw4sBFPyiMspvDcRLtngIAjSnna3ssl+7i5bWcb+n8+skQOX/1BnLLQW2N2/FkxoCTo23OJPoDAW1qP8PXjrEalz5o076+cny6Shaz37bOnQDgntp2PufnsJyfXEVEjkv/2nV98sTRqRmAPhiL62yzizUQYB/ZXCBo6z45P5DM+StY+0x2ZM3+9EfKz/llOADA1ryf87Mpcro0TVmdQ2cBwFTc7FD7bQmAIKoaU3yKQwwuoyNUiqBITo/tOxanLI4bcxhMMZSIfe58Stcf96R80R8zrq5n5BnXGgA0Vsx4L836pu+AiSMzRE7PGBme/jrHuRG5GZ8x5PDaSH72OY/vtMupfCYb13ESZJz0wJEBgs8AgAwC7PrZ+G2dm/70LXlzAGkwmYqIpgHkqtYynR+1jUq7DwGAyKsd7L6+D/jYQePfx8mjbTxlDihFe+yY/uiHsZGJcRiT/nB6ab+6BtDTN/JaOr9xXoIvRWcVAddofr/cpygKyMgZNeFSXEqmPEaEGVUZgxQViOAiSEzQOOG4l+OUhM2rKzwxVgVAz25PfQow6ZKKiMigApM+BVTkAqg4BgcNnMjB+MjEZ/JK5uQxnRQB2ADPPkpWjZesRGo8n9KQzxxzbeqPttJtfSZnjoDVKAAC5hj7aLbNERUArapbKwJyPDZBBuQmPcccuYyEPPaR4/vYGAo0Ak9sLGVu5G1eb1yeWnF4bGojK3Fcn54C3QsALGmeT5AZCyFTHIbalM5wbAECZqhFF8RQKQIXjTLypUMyNIpifCJQVW6A4hVV3IsbmGIzrscCABFPBd3rvAxeyg4gOX7p+Bw7g5zyQMk7meCOkWVpMZnWjn3H6KXILcpysopaDBstx+1a7WJtlKG5J1njAAvr823EBjj/IQDQP23Ts0DSX7wBztJ7IIDq87RF+3GfjSXwyO5sAU3ObW5ftZ/TK5Tiprf6Qx9Pge40BZiGdQwvr2EEBEWomMERHtRMgBmJ8zNQSmG8AISRQWaOASRkDaV9fWaEznedNlOc/QCmdBHrV+nlbUVA1NhQjqVvARx2TN8bx20kOveYSRraPDjH1C9OkMzKhoyp/tqfn4HG/I7MgZ02gCN2nMPINPQ/XTjP9+4JDBvzHLv9gEg7+gR4sT66n7b04xgZILqVIeK1KYD23ReL+qK/jI78fC5lzy5wuo7ZSpmVezZ9oTN9NR735PxsR6QHjoGiLIld+Z6syPjYMV4D3SkDOJWWt+hzEQNz1hSVsinRZ8rBzsm5XJNzayfWdsZJeR5pMXSK8iclnpczbtHfUmQZAIPBFCiyHFoHMGk6gX5lZBwpYvgcqEdrt5EM6O1vf/sumol45ICNhdHjtUh8qipdz1gxWYu0il3k2hSAkZMFBj5oyvhYOvX8YzIAQEC+WJYk+lsodWwG0DHjL4sCUtojb/rKBuiP3IEOZy8bKHDhpxL1Jz0KAESOc9qie1GTM1UDgMpFdEgdWgODzgUGZQdFW8xxRSMKNFdrYQYlNwVgXNUAJgBYM38KAOiXdB3ra8RARA5zaUZ0G5XKYpV/4yQHhuf/8f3xagt+YjT7cheSbVgghPVfnzEnS27S3Luay6n9OwYARGGOx1Flc/SprkOGbIJ9sK+1e3ec49Ix1habwTNDosfswTk5fVMyWchTivzRgwDApEO36ztOTHGcmoMDgFK19gGD7zBFc/4lAFAMJUF0iC16St/cJ2MR8ar4UjLnPxYAAi73FaWloAxVNC01FSU8AhNJORA65AxzLisraVzmmq95zWt2LDI3xtqyrT+4bMgxhtk0QJ8mOQebcrzxjW+8edOb3rSbcrgf0CSvCQBdcyodGvM+OhYAitKyxpabmzKQGTkYPzp0/2RTui8QYIDdVCY7SIZlTqeO69ro4usA7kprRkXAGTBHpgiOWkrGIKSm5mGMVnRcsuMVa1zHOKpUmycGKjPNdu5U+D4SZaT8HEYRkaFigCJLkYK6tjm0qIIOGY3ryiT0iQGTjTFXbdbebMM+1h/XNHfWL5FRRNdO0arzI+1zIBkHlnFwAPdk/OSLyf4uzo/m/Y6hY2oA9J+Oap+N6HM6B2JswBZ3rO+zm3mM7ulLO7IAetMu2eEcfynHp0iPnrMwqGlUCZWQOQ/lUgBlUJbKq6gkqlp0ITJ54UJqXJW/P1+UMvt3YtGcwTBiGQFyT04R34U4HMPk8KKTbELEUogSUc1LGa/Mxbk587FO5Lwpjzijq63aA2wASRbh/hXF9A0QcOz6cBvNe9qf97kmSj4yAc7LLnrRiP6zCfsxW8HOwWyEHbGTFiz1WK/oLzgAUDbZPV8M9KgAsGZQCZjxQVzoCwSKSNAZGEDt5tcUJjX2nN8jP+yz75zD+V1PiVN59eFY4+ZAnJkziaw5m9TTD0FK2x0TfUUsAFFF2jE8IzT2PZAwnSl1R8lhjZck5RU5tSe7AUwyE1v90G8021+j+Z0xa7vpGFDrKUrcWA5x49YXtQ1t6suxsl/S7KNAIbtjE9lCNrDcn1xWJbCwkzIA2YXon/Ozw33OX/+X/FToqqsWS2FfA4myS8cX9UV/Tiftz2GcK6VXX/DEQYVake2tb33rjr2RZ+s/8LUFMFzvOlT0xRnVNLK+S0bTUQEUUNGm/mrXNTOqL8n32sD2kX3A4XrAYi7uKcVb3vKWHfuZ8XiOK/a5741dfcMCH9mRPnafh6Apr+TAqadM9snlxUxXBQBT+NeqiACAAffnDwDAVuEqo66ICQBEYIt7AgCcc9hOAOC8rkNLR9VuvI8c1z9FURFWtBZtJwBk8JO6h+9z/u7hszaNCwCYTvifgen8Of50/jnGjgcA5DUBoHtNui/9aze52pLHiy2tP4UeFQAS+prwD333WMQ5ORfHkvqK+ozZvojLWTgNALDvXGmv4lpLVWULGGhg37le+t71aAkA+2h+nwPro6hdJoC16/tle322bX86pa32XA/MpPLAqjFMbjxLVhj1fU9JZESBXVOe+jb7cQmabU4m2yXP758LXfUU4Fqp6I4ZLuMpsmY8HDEnjEVh3GeR2jnacX5OFy0/o2mk3Wu5RfOcjudoS6rfOUIczXYmwGBjiJfjjPu+87sWAxby3OhxaAOAE4kD5QQZLmeZc0nkuwx+n1NMAMgJcs4cNUbTCeOOL7drjGabqO/023YJZKjvUWPX5+nIjXMJAn32/dL5fV6OfdLsw0b3Qw8OAJR6Cq/RvnPxfRNH8CTB48SeTKg+2zo255Odq5Ls2b3FSJ5gTK7i7Lm7avPSAXPYpdPOLfK9z6rh7qc9VeyeZXuSot3Z3pKj2a591/U0xjiNo7UB2BjifeNbHieLZLW87+SN7p+uZiHQqXSOgZiXtxCo5/SYgd+2EKhUvUU1y9RdZEPAATBwEI8m+6EI+9Yx4B5X9pqyR1DGpWagJqCIJzqKuNrzSHPfkuIcuKiM5qo27Xrk5dGpY52P9R8r8ClqYjUD12EAQhbG4Vpjdtzimvq9xo3TPpm2j/VHm8bV83VAE6mH9PhwbSEQINqno2ugpwJgGwCcCADu6xhDdH4AYCul1Q6nLfp6tsz5LUCx2CSnwD2b9hza82uRkbNzfk8UVO8nADgvANCPZDAdGdW/shOOxvm177ul87sH5+L8vX/g2gDA9UDE9Y5rS7/nWOIcfd8xjm/MxqBNbe3LetAGAA9DVw8AGfqSz6FLAIAUtgwA2Yq+oqfzGScGACK/t+k4QdFUKiz1xxyLs3EG1+uXJwuMvrm1KMkZOY0+1GcsU4g5jvPn3DoH81n7+651P4/4ZgbgXvo3AWBmBTOtj9eOY/LQHlDiyMa0dPyoJw6yITri/OQxAUBb6WhmD+fax22k/dv4qdCTzQDOoXMAYFJRlCE7j+IZomjNaXKU3kfgUBn8NJKus+XAnBFLy33moApqMgGO0SIkj9RijusYtm8FoMdt2mmsrQz0/WTHemRnJSMA4egcNQDAxrXs+5IOfbeP5vnkGRkn5wcC5HAIAJpCRKf24VS67/Yfkh78bcDHIsOMGZXFN34WzDPqXr6Rtt/2NmDisuWQoiXWZs/5GWqgIPLJADAnYqiYEdUf5DMQ4KjeBMTaAlAcANAAFEZv3fsk1+LS+SJ/x7W7BJ7lFtCYemD99qYdR9NvspDBGAuqz/uo9u5Kta0fy58Ew/ow3wZMR+S9HNN90X23/5D04E8BroUocRrMqUp1vimAqCi1FeXNb732i813rS+XAYj800Cj7hsjjloBD8tK3AfYyAQAVZHbfF30jkV8Ud45sgR1BMDEmWQCvuvHT5zfFgMeIKAfpjcY0Lg/QAhA0Ozzks+hCSxrILPvHp17CJgO0XIMt/GLiZ4tAKBLKNT1nIOjiE5AwBtlcfN+zlQknrTsA6AQ6RX8ROBYO4pnTScUDe0vWc2hF1t87jVX2+U1jivo6Z999+ynriaAmQ4AocegnDo5LeV1rvM/d3p2ALA0oqVBnUpdDwBkAhMAciTAIKIWRef9+twx0VaxjbPvAwBO3JuQOXyOPh3ccZ859gSAJQcAtrcBwGM72VJ2kX5tAHA3elY1gLbSYr8GpAbgNwGlzP0i0G0/CXZJcS2NWdsKcN7pV0fAagBYUUxl31TAeeoInHKfQxxL1Qy0qR1TD2MlB6DF+WUjioEtJkKXlMGSGo/pS/8N6D2CCpz6REff/M3f/J5fBMJNseZU5RCdI7cXEz07AEAAoD8HBQDmxksAWPtR0PsWFyf3lEJh0Zyc42PAwFk5rT40nTjHkLUTCGgHoGDZiqiPjT8ne4hpQONZAkBFQABQEVCmUr1iA4C70QYA/wMAnH8CAH4sAOCQIjIGBnGV/e7PgC9hxLPNnEd2waHisg3f3zc1rgDAa9SeAlijgD1J+bZv+7YdCAAAWQkAqH8bAJxGzwYAJgUA/TNQlXERr+hi1d4+AEDPUGQPRhMA+oOUHgMGAN/+7d9+863f+q27KQAAwIAq55/Ofaqjn3r+U6dn+RSAkhlLz+SLbEVDXKq9z9kzso0vz9HMhLDPhyL8mq42OkzPEgBQACB1ZFA5/ZKnYU1D3fj+GJG5ac8sfPousEbpJv0sP290Oz1LAGBE0vqKW/YdY3CKb1XhFd8swbXGP0N0Dp7RaePLMDmTt+Jny7O9EOWz74G1JxXVJegMBxptNzqenmUNgINXVTa/bK7JAP1ctJ+V9hy/Z+yey1cQY3DLzGCjyxD5ewKCrU7sz1usYvQUBFtn8brXvW7H1ioAb3opk0PnAMJzA5FnCQAie+v/PWLqr7gAAwPDFt6oMis0WUgj8mCRBwBUld/ociT76qUfz/z9kjIQcKxiH3289rWv3bGFSzk/YEbnOvAGAM+AGJrFNd42kwX0a73Ww1vwgq2SAwDYPudngACgaUCie25Gc18k8vfyk6cysjMA7ZXo3kj0ctKrXvWqm6/+6q/eZWf00XRgo9PpWQIAg5IFmGN6/u/NQMzoeu7O2S2PxVbClWo2BQgAOH+80XnUD6pgWQCAxp7ztyQaIAMBUzRLr6sBbABwN3qWAMB5GZs5pzflzP+xbEAW4Bm0YhTDUyQs9ceMLQBADC8j3Og8UuijF9ziJ7KWganN+FUlINBLTPP3CTb5342eJQAYMsPC5v3eu2+lmbknILBYiBECCedNA/M5sW0AcD8kAzMVk32px/Qff+b9LVOWlZ0i901HL6RnCwCxeWc/hKHa3C/qKBDOF3E6fzo/YlTxRueRYl7FPum9tx9xRVm/AuR458zKP7pNB5uOXkjPFgAiUV66jxWf/MgGBgI9KjQPlY5KUScAZFCbYV2GOLWI77GrSO99DGx//hrSnI5N2d+mj01PL6RnCQCT5vDn40HPofudPNkB5wcWAABtxnR54twcHYv63sfw193m/MChWgxaA+GlXtb0tOnvXbQBwBi+hSa9hy8bUBDk/H6Ki+Mv0/+NLkvm9L2A5fcI+nUjtYD5vJ8OJhDHfZ605uhrx58bbQAwhj+fDgAD6wWwyL/R/RPn5uTVAmQEvY05nTwgxhVgp0Ov7U9aO/7caAOAdw9/nxgc6ziDYWyTNiO6PzqkD7xlAJehDQDePfx9Ylge2wDg4WjKft9+WzrYp4fbdLPp7l20AcDCoCbNYxnMNJzNiO6PyP4Y07yrDjbdvYs2AHj38I8VwwYAD0P0saaT5L7J/3zaFlAfSYxtM7iNXmy0AcAByuk3x38c2uR+/7RNAY4Y/maID0+bXh6Gtgxgo42eMW0AsNFGz5Zubv5/XNvXLPv12NEAAAAASUVORK5CYII=;" vertex="1" parent="1">
          <mxGeometry x="816" y="169" width="83.66" height="50" as="geometry" />
        </mxCell>
        <mxCell id="79iyy5_s4vcbfLESOXtx-23" value="ingress gateway" style="shape=image;verticalLabelPosition=bottom;labelBackgroundColor=default;verticalAlign=top;aspect=fixed;imageAspect=0;image=data:image/png,iVBORw0KGgoAAAANSUhEUgAAAQAAAACZCAYAAADAbORZAAAAAXNSR0IArs4c6QAAAARnQU1BAACxjwv8YQUAAAAJcEhZcwAADsMAAA7DAcdvqGQAAEDySURBVHhe7d1nlwRdVf/9wZxzzjmDiqCCGFCWYHhR9yvSZXwABhAMKCrmnHPOOfxvPw1f3NbV1dM93TPTc03ttfaq6uqqU+fs8Nv77DrV/ZL/9z90s9HV0FSH/T4vj//3f//3jv/rv/7r5j/+4z9u/v3f/313/L3e6712/JKXvGR37tx2fO7P83Hnzv1L0320udHdaAOAK6Olo3PwHB3/53/+53scHv/rv/7rzT//8z/f/NM//dPuc+e7Nkfm4O/3fu93877v+7677Qd8wAfcvP/7v/9u3xa/z/u8z47f+73f+z2gEDBcmjYAuB7aAODKaKqDI3N4Ts25/+3f/m3H0+n/4R/+4eZv//Zvd+yz7wOCAIDjf9AHfdDNB37gB958yId8yI4/9EM/9D37H/zBH7z7LpCYYHBXZ53jWLaxAcD10AYAD0hLUfe5dH7Jy0j/L//yLzvHx//4j/+4c/6/+7u/u/nrv/7rHf/93//97hwMOIrgHDtH/7AP+7CbD//wD7/5iI/4iN1+DCBkBtj5MRAICJaZQbykxmU7v9937r5jGz0cbQDwgDQdA8/onuMW2WOObut43wOD2LHOsR9ozAxANJfm5+CcvYwgdryt78oOAo55TSDRdGE68Rwjmt/tc/Z9xzZ6ONoA4AGJqBP3nMtzXin83/zN3+wi+V/91V/d/OVf/uXuc+m9aB8AuCbwqB3bjskeplo5aZG89H7JACIwkBF81Ed91M1Hf/RH/x92rOzBeU0XtI+65z6TWgOCDQAelzYAOJFOFdd0ihwWm6vn0FL3v/iLv9g5/Z//+Z/f/Nmf/dnNn/7pn/4fEBDlqwEU3ZEtzgkP0ezLch84iOyAAAB8zMd8zI4/9mM/9uYTPuETbj7+4z9+t99x5zgfAwL3j6NDjr78jPYd2+h+aQOAE2kprvl5GnBR2Dan5/BF9HhGeWxOH8sMRHtOr51lFJ8FO+w7Dqgfsy/1o+zAFs8ag/7VZ+2UDZgCcPYi/0d+5EfuWDbQvu8UFTFAqJ9LUFrKaunwy88b3T9tAHAiJa4ptvYzap9zNI6VE3PwP/zDP7z5oz/6o5s//uM/3kV6DAREeAwkOl87OTzH4oycbM7FcY/yisRL59OXQKj+cH73WtYZAh3XYO2Y72tbLYCzAwTZwCd90ifdfPInf/LNJ37iJ+4yBJmC72YBcSknnKMnr2jub/QwtAHAiZS4MuYlMWKOz4mwQl0OJr3/nd/5nZvf/u3fvvmDP/iDXZqPRXsOibXJ6XI8TpfjibqYkwEBxwOCOSffBwDVCQIX26YfWB/KQHwODJpyYO2WGZgGfOqnfuqOP+3TPu09W8fr87JQOGU2nX+53ejhaAOAEylxLcXmM+ZsnD5nUtAT5efc3laxLydzTVGcc+VAcdX40mzHOr/onPMHHtOZ9CsnBgKBAeeWBVSL0Bes4BgHXti4AIfr3a8pAacX/Wet4OM+7uN239Vn59eXSfuAYKOHow0ATqQ1cXHinEwEleL/yZ/8yc3v//7vvyfqc37fcSyOJDpi0bzimmp7+xwsANj3CG5Ge9ucaZ8j6bc+zn4Cgfb1p+yA05cRtMagJxNYwRIY1H99LDsxHfjMz/zMHZseBArOmbKb+4f6vdH90gYAg9ZEsWaYzo9FxaIpZ/nd3/3dHXP83/iN39gx58kJRUSpPObsnMWces6nRVCOgzk+h8/p9Wmm+adQfdDvxjaBQTbA+bGxyF4wUDN1UccwlsaLgBOQ0vfP+ZzPufncz/3cm8/6rM/aTQuwsei7cS/7XR/W5Lx2fKPzaQOAQWuiWDNAzlI6LbI3p89RsCxAxMTO5fBS4lLnyaK/484x5+f4pfo5Pp4p/iHnmOOZ5zked9x+wFB9QNovGzA2rFgJCBpPGYHvZA4YEARgAE1t4FM+5VN2wGZqgI2rrKV7Y9TYZn8PjXGj82gDgEFrolgzQI5fFOQYv/qrv3rza7/2a7uoz/EBgSjavJvhVzjjFEV9zt88nwM1r9/n9NP5j6HG1DWHrnUuBmz6XL+bHgAF0xcOb7y/93u/t2MZQfUN55UNALTGaUogK/i8z/u83XiNr7pA2QeaYz2mzxudR88eAPYNv2P7DM93RUrzYHNlLNr/3M/93I4BQPPmHL/0mANwBA7BObC5cwU9DuAe56pl3/XnOhVAKNIDgN/6rd96D1fnMO6Aw5gVA/Fnf/Zn37zsZS+7+dIv/dLdmH1HLkAuANCnMoP6uuznXfq90TptALBn+IdEwrhFfNGQsZfqi4ScADuuDZzjS4mlwaIhdozji5I5AuYAXbuPcoBDfZzkvOk0a/vH0HLKAwSwyG9tQ5lAhUJAEbABAcCnPvAZn/EZ75GD6U5OPyN/jGY/5/5G59MGAGP4h0TRdz3iwwz+F3/xF29++Zd/eef4Ij7mKCr4mNMzeizymeNjdYD5/J7xY9S9lv1ZGv/8fn53aBynOFDnzv4Ym4gNCJr+AIPqAsDwN3/zN3dFT+AAKJ0DCHN62cAXf/EX33zRF33RDhhbzAQEuo97T47m/kbn03v/f/9D795/1jSdZulAPjN6kU9hjGGb40t9f+mXfunm53/+53f7QAFAMGYRT/Vb1GPoL33pS3f7DN4cWORrvl/kW9J0gNu+nzSPL/lcKloDLU6tWNnqQMDmWACBZQEAAhDYV0MgRzKS+Ri/ftnKgJayr8/L7UaXoQ0AFrQ0QCTqiWIq4lJc0U3U/5Vf+ZVd5K/4VcQX4XL6z//8z7/59E//9F3KL+oz9CI+Y14a9L77R52/vG7t+KVprW19xmUxxtfCpVnU9B0QAAxAogzC/gSAtbHsO7bRebQBwKCcbzohg2OwIpdin7ku5//Zn/3ZHQBwfo/HREXOr7j3hV/4hbsUV9FL1Of8oiRnYOSzyBXNey5pzfBvO34u76NDx41NZOf8ahvGzPERJ2/6RJYcnzwd4/wyCFMB7cx6ALKdvNHlaAOAFeKQmOFKXxW2pP0q3aX9VvkxYCT9Ffm/4Au+YBf9RX4Vf/P+Ij/DXjr/sY7f/kNwdOj4kowrADBeBU4pftfKogKAlhXbB66mDdVEnFs2MKl2TqW7XPOcaAOAd1OG0pbjS1c5v+KWwhbHr+BnKsCozec91+fsHB8AyAIseBEBOcSptM/Yr8GQZ79u28fAzVbmw7mbInDupgPkDDzIEhg4n8zKHLqmNk+lu1zznGgDgEEZGWaQnN+8X+RX7f+Zn/mZHQBI+6WvIhXnF+2l/FJ/QOCYegDDZ9zH0Lz3Plo7/hg0+9n+5OnoHL93GnJkwMD5TZ3IOFkDADJzvqygNmy716l0l2ueEz17AMhol4bCQKWoor81/b/wC79w8853vnO3L311vnkuh/+SL/mSnfOL/JxfVsDwT3H+aPZn8kPSvvsv+bbzct6eFMxMKIcHAGoBngoAWtmAqYDpFCDQhkxgTge0/RToqfRzywAWxAgxg7S459d//dd3S3w95vOMm/MzUEt4Pdvn+DKAXnhRAJMZ5AjRPoNYnoP2nfdiIE5PrnN+LxMowldLAZyOkYPjAMQ1aJ+8rpWeSj83ABjEIDFjFf05v8gv7ef8nv+jFrOY73N+lX6AIHqJdMtCX9Sxfd9Fa8efKpEnMi7RPBk5HthyftmArGvO/ZsO2KJDcrs2eir93ABgEMdnjNJS83xFP2v7FQBLV0X4nvMDgF55lfaLVKX9Geup/FTomD7n/IhDc3wAwMk5Pir9t4KS7CsI2pK1pwkBgDauTUan9ufa+r8BwCAGaM5via/FPp7zywIYp7TUs2pzfAU/835AULW/NBWlZNtrU/hjUvIo8pfq97QFYHB8nxHHx4Hqsh5wDXSqfq/NHjYAGOT5tFTffN9rvZzfIz8LV0Quy3tFfABglZ+XWjh/Bb8MHC23G/0vAGDO7MkAufW0heMDYdMvmUEAAFw7f9YDroFO7ce19Du620/KXIgg/il8Ku1rYx9LOT2Cap2/xT7Sfo//PO7zvXTUoh4AYGmvOoAVfrICxplhx8+Jjhn3/I4TA051k34xCMumRHiAawomE+v3BqoRyBz26fChOdr3HX4q9KgAgAiLg8Wlh5cUZG3hZfsijbm9F1ak+pw+oxOVRCiFKA7f66wMlRHX34320yFAMJ8nW1HdEupk62Upx8jWa9UyMIBs4RWABtSb3C9Hjw4AOWRKvTQIdL1t7c723U/aCQAs9/UrPgDAmv8AwOO9fQBwqT6+mGkfCDhGrqI9Z5dJJVv7Hv0BZlHfugsgoDZjquA4nSX3x5L9i0XvDw4AU3EJ0HY65ZI61/eULwp4+645IxbF4475vvNsM555L8eqQosyWPop+jjX3J9RAgBpau/0S/vr15IYePzcaN/Y57HJsgD1E09QyFZNRTbQLyTRZVMBegEI1QroL9qng42Oo0cvAlLeNIhpIJFzOCNnpXyGUeHIfFH0nlupou8nIEyjmW07j3Ep/kk1W/ADMDi++f78GS/GyflFMDz7Hc39jQ5TIEqGgJ3+6CyAti9TALo9QiR3wCELS9aPJfO1+556/LHoap4CEAwjmCCAGAFjKPJP5+fwKsYKdfZt1wDAtah7RM71Vh/Hx/YBgvtzfgt9cD9jpXjFIBnhbGsqdu5vdJjIiiyrqdAXXWE6FPXpf/6Aiq3PLS9+THmv3fvU449Fjw4ABJJQKBpT/oz0RXfGIFU3H4xV7W0dN4eXugOCCQq41FFkx9r22XUq/j3y05bzRRhR3yM/GYDUVKpqzprj1/elUpefnyutyWdJAEBkp/syNVt6AMbsQV3AOZye83sPwzEBYkkPKf95r2PG+5B9O4Ye/DcBl7frs/S+iC0qc17M+TkvLrIX3RlGc3vtMBwCZlBxzipyeJSHGQ4Hx9rtN+wUALuXVP9rvuZrbl796lfv1vv7jF17G12bkq+B1sxsHqdvOuhHV97+9rfvmN49MsR08cpXvnLHQJmsA+PoIeV/6n0fsm/H0KMDAHIM4kvnRXmRXPHHIzkRWVTHDCQA4PizoFc7aBmdsejBeUVwHBgAEQaHgU3AYcXf133d19187dd+7W4K0KIU7dxG16bka6A1M5vHTdXK3ADAm9/85h2zBbpSA6CLr//6r9+xwuGcjkUPKf95r2Pue222cTYA3OVyDuu65vVY1JXO94ObKr+Y8qXpmINyfGDhWsKcPEn7kxmI9BFz5ADAdwGMNkV5BSePpDj/a17zmt2S35lRnELXpvBrIDKP5r5MrimalZg/8AM/sGNTs/RIL6973etuvumbvmmnl3QKCNYoHZyji9nPSbPNY9q/Nnt4cABofoc5dHN3kd58rzm9bAA7p6kBB6VoLBLP7Yz6ZQYBzL5swfkcmtFJMQGQaYLCn8hi3v/lX/7luz+ykA04t/ucQtem8Gugpc30mW7oAyvI/uiP/ujN2972tt0UrSmhQmwZADBQlMVAYNK8R3Zx37o4pv1rs4cHB4CiPeboFO3xm+q7aA8EOH6ZAaPIuSmZshWBRG9z+CrDRWjE2YsmgYdpA0fHPpdJ2AYS2vaSj8KfN/0YmCjjHYCAp3scS9em8GugfTbjGA6kPYr96Z/+6Zt3vOMdu2ygaZrin7rMq171qh1Ie1RLP6Z1UW1FMzicS2ttuN8x7V+bPdwbAMzj9jkl5nwivsgvxffGnR/csOJLGu64c0rtcnLzd46vEs8I+tko35UCYlQU4eA5PcApqzDPlFmUXZQdaPvlL3/5js01FZksTXWvJQAsx72m2GtT+LXR0k76LBioA/Q7jEAA0/crXvGKm6/4iq/YgXQZG9uIasOW/AFAIHBXqq01Wn7/VPR+7wBgK8JyNk7I+S21FfGhfMjeHByL6M3FWwCCKRnbh/jOw6YBU8m1EwiUCZR56EtA4PPMAER/zLC6v3uVYbhH45q0pvCnYgiPRUs59lkg6D0AAOBn2P0mI6IfTwP6TQbMXtBsj+yXfFeq3UN6X9u/ZrpXAOg76Xfze84v6mMg0NyOw3Jsqb1IbN6NReAJBD2+K+2fjp/Qu3fppLY5eUuEOb2nDT1ZAA5YRlHa775lGO4179M9Jq0p/KkYwmPRUo59BtKyAOwHWasHsCVvZFqVCQBkAmo1pgHpnMyX+kLn6ELb8ZK0G0fn3Osh6WwAmFRTCYrTicIiLceX5ivoUChW7UeExdmk3Nh6ewrGnv2WDQCH0vBS8WOJYeiLPjEiAIABQPUBju7eCk0z7c+QbKOl2J6i8q+NpkwBsiyNjkwDfvAHf3D3RMBn4IwBgLUamN0E+NpJB/Y7NrdL6vyp69jnvm8bzeOHzrtWujcAkFIX3UV/K+0stpHSSfnN/zke58besON8mDJlATjHl4aL/BTC+U8VsD41NdC3agO9J4A5e9mG+3UvWzTvuRTb/O6pKP/aaMq0+o1szRSgR4IyAlM12SAA+MZv/Mab1772tTu7AfDpt6lfuu1z070JAjk6Np2s9lQdCjfVxIeCjzbo/6nYwMUBIIbgpXAiPxQX9WUCKZZgpduldNbbm3tL56bwCZ0COOg5wq1vjKRsIFDA2p3K9jmFLkk7k+Y5d+3fc6cp0+o3WJH4TW96080b3/jGXd2ozEwd4A1veMOOFQLpswyv4FPtCbM7dul77acnDq09W1M+4NJ0tC2WpeJph9kUQPE5IHkqNnAnAFi7xPGcSdpfEUfkr5oLEHIwUb/Hbh7pUKJ5v4wgoaKEegydKvg5ln3juosin4ryr42m/Om+iK763xSAPRXJ1Ws4/+tf//qd3QQYHF8RUY3HNCIgwGV+2kZ0FQCwSQ6u0CzL6JFz+zGQcK5rpl1qy2ftPRUbuCgAUFYIq+DXXB8AmO9b5015zeEoTQZAkVK45vqUQIBLPoaOPS9ajmXf2E5t89TzN3oXTdkDgIIJp/+RH/mRHbcoSIBhQ9YDYI+GRXlO7rse+TpmmscuAwis3fRUgOG4MkAOHhf1Ob6AZVrKTn3uUXSZaoCAn4oNnAUAbRss5074Kvxe5Pipn/qpHQCkBKmUuZuo72275v2EGqpiyghJTxHmqYJfDv9YcRy6z6l92OhdNGVvn5MCAtNGtvQTP/ETu1qSLFJdSZ2GLWGOKOLPqI9z9iXPe2VjuGygbTYpMClIq08pEtu3BTw9ngYC2nhKAHDn14GXjmLAhC31oiDpv7TfH2so+DmfgKzcMnezxNaW80Pyqu5RgsRL0tYxAj72nLjPx9DyvGU7G51OU4bTvkRx60c8AWhOz8lNA5xra1VpPx/G3gCEa4CA4OMcjt+0cnmvMg7nOV8W617uWTuOYd+bQrim9gpWaAkAc3/S0odOobU2T6U7ZwDxJErxfN9cX+HGvvkb4fU6Z89vzf3N+SuyAIcEql0CXQLAvN8xAjhVSLW/HNc+WrZ9KYVs9C6atmDq6O/Y/UkLuzINwAKOzBGzl7JM14jcWBovU2BjKvtz7p7O3IdDc37cNEFb1QxQqb7031TAlEBG0JoVxev64161v2Ybx9jZGl3K3s4GgHk51P3xH//xmx/7sR97z3N+2QDlzDX2QEDln8BSlHNmewYY76NjBHCqkLr3HNMhmu2feq+NDlPOb8uGBBUZZYvIAIHAklNyajrApgNSc45o2yNlwYZj4nk+5wceRX4OX5Yh+pcBVN8CHkDFfQBAP2jaU6yWJtc+3kfH2tk+WmvzVDp6CrDWWccJEGJKw6T8lmyaq0mhfAcxOf7LXvayXfQ3d+L8FJIiIvvLFGrSvuOnCuO2849tb553ah82eiHtszHHOJ7aUgU+83xOyRl9L3Unf9GeTbEtU0vOyCkFG8XmHBSL2M3lTUFFc9x7JrjM1FMrAcp9AgkAoR/2y1bYrXOBQ9PZQ7YcGcOp9nMpezvrJ8F0QspEKRSiWAOppf2eAhAGJCTo1m5Dxx6lJKTlYG4b3KnnL+nU89dotnOpNjf6v8Q5BBdRmfNxPPNytSbfifIcnlN7lFym6WUuUdlxTu4cTg0gOCj749yyAXaKq/r7nt06v/YDB58r+HH69A6kFMEj3yHtsnN9dcx2Hz2WDZ/9m4AGzfml+wownF/Vn5IIivAgLwCQBUBeQpb2LwfR52MGN885VRinnr9G5/Rho+NJkOFgtkVeNie69pPtIjzn916ALec31SzbVMVnj6XuHL/pA875RX3nOT/nByDu43OPqTmyPlV3YO+2UdkAwLENACL2co79XMre7gQAE8WkQJxf9O/dfvuEIbWCwOZI0FkqRpD70v7I/jGDWzvnmGsnHWrnNp60/LzR5UjqXdVdwAEC7I4zyygFGDYmyIj+7MzcXNTmsJxwOn11p8mcNCDQ7gSCpgWOa8v5+iQzAUpAAAD4zA70EwC4nzacn/NnJ4emBsfY0qXs7azHgJgyPH4R9VVmgYH0zJwJKlOKdEzk5/yEqPNrjNoeorVzjrl20qnnr9Gl2tnohVTAyVk5qmkk5y+wCDScXpTmxOzvmPn3saQP2qoPAANIABb3AlDIOYKfz50b6bfgV7/W+nZMn4855xg6CwCgmupoS30BAOdXrKEEzv9lX/Zluy3npzSoGCWEyR2/jdbOOebaSaeev0aXamejFxLZchy2I4Cwo6aWgsx0fk7J6TjlJXXLafVhThUCG85ejYLz8wHZgH7k9LZNB+rXWv+O6felxvYCAAhtD1HOb+DmYx7JqP6rAUjNpEdSJ3MxAGA+JhUKmZEBxJPuMrC1a+7S1kPRNfft2ojz5UxsiCNxPkEFEHjEBxQ45oywd6G167TJeYFQIMCm3Y+zs/uKleoTpirO1W/XOd80ogDoPmv3Oqbvdx3fko57w+bdxPFz/gbboxnPTE0HdIyCKGXOvwjKtcAhkLnUIDZ6HpTdCCIcC7Orh7YjYACMZAHqDKYgAp2A5/Gj4+wcEKiLyYwtZuIjMgR1g8by2HQrAOjokiuAQD1TgAAAGFAGZAwAivyUhYBHBZGNNrqNcu5sDxWNcXP9hyT3BACmIwDANAQAvPSlL90BgKAnOzYVaNViAMBnAMC1+MBBySVw1H4AAMk4vuqnLecHCoQjHZtpWYpCBj7bfbGQMR3D0b7vnjtHc39Sxzk8exL9bYHEQ2YB7uXeQICNe0zYakDFbqAg6KkJWB3b/1vICPgK3+FDkxrDQ44D3Qk6oZvIr+JvcD0CoQyoaH4GAOw7ltM/1iCviTL2jdd5SdnLtJ9rsSH2bV7fdEBB0oI3WQE/MB7B0SpZP2YiEwACSwB4LLoTAEhhDAIA+HmvAAAyi/gG7tlpADCVOhW3T9kvdsrIN17nfbR0/vixiX1X4Rf0AIAFbwDAFBjtAwBB9BrGcCcAgF4GJa0BAOY2qp6EIfVpCSUwmACwT3FrCr8ETaOa/Fj0mPd+SpScpr3s43nOqTTbmbxGa99Vj8juPY5sCTIA6CmBp2Wy5WoB/OWx7REdBIAplPYxAFDxh2rmOKYDEC00FPmlRFIjAiCkybX53Cj5bbROp8honnvKdfdFCt1qAh5PWgUrC+YHbF7xj68Imj0NAAJ86TFB4KgMYCloc/pTAKDrZzvouUbEpTw2/l++C81rz23rHAoAOH8Lk0wN+IVH5pwfmzL3NOCxawFH/x5Ap9may3z/93//jr362wooA+4fdT0SsUgDE8JSMZd0/lOVvXa+PlWwXO7HG90fTRspU5wZY9tofp66OUdPy3vcRvN8QVBU59h+s+CHfuiHduzn8dgStnTZvxv7OXMrGQVMLFCeQqf2c43uBABe9vme7/mem+/+7u/eAYABY0UQAOB/9b37ryqKJwBE5yhpSecobRI0ToHLre9K1xoL9vmSY3nOJFK2wIdTyCBzjuSN2i5pqYe76GWt7TWa52cj2O9hvOUtb9n9kKkVsjJmdTOLhvy1OQCwL1PGrZM5lk7t5xqdBAAxAPjO7/zOHfsH19DN3Ifz++vmJQAs6cjbHkXnKG0SR5eayWZsYxlOQGCc1TLQlMtG5xEnUDhWUOMUFpGxHSBQJnCbrvfp4RTdnGNL2QEb8VasvzPz61jAwO9jmC57gSkAUCxUOMTGeAqd2s81egEAHBJWA4Ro3/Ed37FjANA1AIDzf8M3fMMqAHTuofucSmvCWN5j33mUBbGlbxxfgQZ7VAO1seMquUAgABCttOczvuR4niuppqsfYXNpU0pcPWlZU9pH9DC/W9PL2vG1dtdo7XxvyPpF7J/8yZ/cTQcETaw24J+M+IjpAP+QOQO9U+jUfq7RQQBYCslnfFsGMAGgGkBUm8u2z6FDxrCkzm0snFoRE1up5VGNR5uWcXL8nF/0BxLGyfmLSI19o/OJc4uEWPRXRcfsiuNgtkT+AfA+3S+P7bODNfvb194hWjtfneyd73zn7l+NAUDvBBhP/2foNXmrCI0L6J1Cp/ZzjVYBYB5eHgMA3/Vd37VjAMAxMGeXATQF8BkIUGa0r/1zaU0Yh+7hO447q7PG5c1GKZtFTqX9pf7VAJoCuK/jjl1yPM+VyBQIYI4uMuJ+SRoDg+oEayCwzx6W+lnT15otrdHa+Z73e0W+f8TqV7JlNq985St3DACsF8AzSB5Dp/ZzjQ4CwPxq7qtqft/3fd/N937v9+6KgCKkeTJ0m0VAj0OAgEFHs/3HIvcGWBzaIxnojP2uAUVhczZCnoJ2nc85P3bsoTKAx5TZQ5DxxbIAdoMVy/wNODaHrnBmypAecDT3J035nSrLtTbn8dmm+b6fx8MBgV/KVuPw4lC/k2HFIJ4+cgyt9edUuhMASJH7rzZpTnNmKOZvml796lfvAKBfXW1JJJrtPxY138civd8y8LvzCjfWNpgKiPqU0tuMRf3JlLCU06XoMeXzWCTjqvBqv4q6LJKztMbeCzd4Rs3pEGvOMWV6qnzX2pzHZ5sAQCaJc352po7hETm2ZFgWgBUCT6G1/pxKdwIAg3vb2962Y3/W4DOGyF/5lV9581Vf9VW7d6OlNhBbZhDN9h+LGBfAMu9X0PSXU/7PQOEG6ZsI49VOrBAlLS3tnADQ+fdBy3YfU2YPQRzfktl+9BMYy8Q4jWkA5jQ5kOnBProGANBvzt+vZQEAQYaPALMALZ5B8hh6cACYRDnveMc7dvN/qMZxch6/yvryl7989+OMpTcQHOn0bHOt/XNorc0pMJGfcWEpGiB761vfustsgBWHl7nUf9MYzk95VaEnANwHrcnpPmR2LaQek14U0RTNOJBsjA7M/wGADFOmSUeIHqYu1vSyJrtjZLrW5jxeO7bG0O9kAoCyTPbD+UV9ji9Q8pWrBIBoccou5VfQUNyYzLEMBhtcSKfKier0vntcitba7N62FmSoY2DzfY9rsKzAs1lslZbsRaoJFER+ysvxL6WA2+g+ZHStpJYkK6MfBdnSZnWang7QjToTpp8yM3qJ1nSzJstjZLzW5jxeO7YAgPOrLQEAmbLpsiAie+H4fAOg4aucAqyRZ+MUJOqLoJxHRiB1oyA/jmBQCh3+BJQToTp9zD3uSmttdm9bBiU903dABpkZmvlmFVr9V8TE6gD70v5LKWHSfcjkqRD5m55h9hUwA+oKzaaVPUdXHJzrA6I1vazJ9hiZr7U5j2untgBAxWUA0CNBfZ1FwH5I5OqKgPuo7yjCHAdLc6TQljx69GHOzOENTD0Am7vp8ERpbR26111prc0EZusZP6fHMpeqtdDZCi3G1RxT9O8ZbW3cR783+l+52gIAq+jUZoA1nWGFZWvpraZjY6rq9CMLuI3uQ2/TEbXfPfhGU5iZAagtCTCveMUrdkGGb8g2H+sx4FFvAy6JI/fDH+b30hcDowRILRMgACm1wo45HHRfKuBSg5ikzdlun+dxj+1EGVOW+qdv0nwgoOqPl6nlVPBGl6f0Y0sXUv6WBovwPRWgg6VOr4XqExtjXxWbBU39Ng5j6gmTjGDa2EPTyXc2iDUAMDgAAKk9Fei951bQ7Xtefl8KnMaxvId+cPoJAKj5JIOjmCUATKr9je+HAwDRna35TG/Z0jz3mqg+ASq21SPyACD7uloAmIKdPEmHKYfTc/7YZ+eq5soCzLUNXlGHsxHKQ9Oy7yhDkgWUnSDjCgSq+E/lUCB+bFrqxXiMwVgAcMAW++x4ztMYZjtrfCrph3v19pt7k7Pj7n0bdU9ypwcOQhcBQO3cRQ/njGuNson6Y6t/dJEf8AEycV9j6V0HaT8/uioAOJYSJCVxfo9kzM9a9mvwMgGP1qyvJwgoSDjHGMKlaBpKBuSYvjOqOKNou6T6Hc92H5P0hYORt2hj6kXe5tCxzx7dSkU5JON03alkzBl4MpjsWPWh5r/pXv84QfJ3rv2lQ7dFdME5chDfdQ0wW1772FT/yLforxho/MYuoHB+gZLz23+yAIB0HKJNAKiYEQAwgIyA8T2Gwtwvdn+MOH5RnrFNEJhA0LUZX5/vi2p/yfvIWAAAgxNpAoDWZmAgzBBFZA56FwDY1590Offp2PQPACjepXsZgX52X9spT9Q2ogM6ykG6hvNPALgW0v8yywCAPozfMb5iOgMABErbJwkA00E4kHTGs34AYEGDrMCADZwBiEIMECgwvhRHYEulPxTpP8Hvc/59NPt5n30+1HbfkR9H5tBA1otMFs5Y1Wg5M+crAseOAwP6qEC7jMr7GLVF+76jS4avLX3SH/f3ZMV99a2akH47N/3XRvtROsE5SPdqO9u4D6pfS16jqRdjNQXmA+SMSv05PiDg/PxnzeYegu7856BIxw2a4jMCA2eUEBDiZVwGDxwM3ueUG7Xf8cnn0mzDvijVG4CAiTNgCmkhkJVn+o9Focj1EzguTce0ycj0mzN7zszRLJqxpoHDeW4u6nssa9tYfeb8DHQ6PsBmiNGakS/lGGmHTEV597O4yroK+4y/KjjK6FHRPZlO0pa+Ag5jZVOY/Xj8hz2m1d5SR/dNazoyRn3UZ3ohB1uyliWzqf7K3Hbf+pJj6dTz1+jkDKAbt50ZgDUAngqYBhgUp2KMIhDjg4gMRXawjAKTtH2pAUba06dpdJP0o76s9Wkq69L9m7Sv7fqHGRrnIFfPl73L8OY3v3nHnptbot3CE/t+lMJaDb9PZ72GY0BDZKYT+pjtR8vPKDkkAxwAlPKm855/e2PUmguZoIio//Tv2pniL2nZp+7X/deueyzi6OQJmIGfsQqESABsOTPHB7qN5zHppAygzi477bMBMQQIqOAkykj3bR0X/T02JAhE8aF2glhr/1ya7WNK8RYgZrAMF1iJJGUAFOWzceln1yLAZUzGx5hFOazdS3KZVcRpOCsZiywtYpLac2bHfe8arH+zjyKxdqdTiaCiqrHO6zh047LvOtu4z7ZkR+eYk8tEsEjoHNFcuyr69E+mnHdG7qkf7BrX048MgDNh188MQBuznfugCUBL8l1y4/zAz/SHfuhE5qV/FsdZuWjhj30rTE0DGu+pdJdr9tFZU4BJOsRAOTyj4CCEwgAcn89yCa3UzXWO4wRtiy81SO3Mthi1jKSUmAEDAX1iWPsAIDIujmmMroH05t4V2y7FFc/ITh9Qc0uGxcGk/c4lU44hC/PykiWmfm6qVWbVZjx/NqbaAgwBgHsAj0AbOBoXh172bTIZ6o/+2rfFnJacsovIPTBy78bmvBnR9wEAgAsA6OghAGDa4rQjx8jd2MjMWDk7QJb5kJ1+G4f0X3/pBQhwfsHQ+FFtnkJ3uWYfXQQAKC4HzuE5in0Gy+F8n7AMvMcgjptGpMAA4pI0FYf2AQDWrzKA+QbgNC5j4PychIIpmtKhfsZ/CeZc+qQPTanIUpQFNr1eyknIkVFxeEZmGbMt53cMmAXA+q/vxs44tQ0cjJ1ufO8+jUtNYen0S9YWwNAXPDNA7bGDHL/j7scxgJKxsYElANCN9h4TACZNO2KnAQDnB6Zk0bQHcBqDsbIl+vAbGXTC+QPduzryXa9b0tkAoCMpEBkwIhyOxpg4DCKklF8V1PWUh3N8x+JL0LKtYwCgDGBpXPrveum0azlIaThDvSRzGPNFhq4P7ldkNscGOoxPhOcUXjFt66UZY8BqNIGs/ktVGSt9cH7vO0jPgTYd0JlxKWIZl/vmjLb61jHM4TmndjFZ0nlO7z7tO85e3FffjE+/OMOUMxkHKO53aQA41sbIY2mXPnN8rJ/Gq29k1huMPjuXnXtr0Ruy3gCkK85/7grA2/p9LJ0MAGs3TjA4Y0vpwMBnhsBgEUP0mRB9lwIJxb724nNp2c4lAABTsvQX2jNUxn1JJkfRQ3QnF07rXs33nSOK9l45x9Dv0v0yGO3YMjz7ruOoZMKJZAHORb4XudyHQRuXqA3wbH0Xk8Hc166t82zpmrwAi3sZA/vQD45gLqz/+rYEAG3eJwAcQzl+W/03DuNh1zIbfQKSgoCaTJkgojtA3Cu/0n+6SSfXAAB36sHazSmRQik2RzIn9XQA4jEKRmyBiAo1JjBzJ0YDEAibYBJ2fC2kfwwgANNvxlnUviRrV/sMjexEWs4vC+BcHMm8PyPjGD6L+CIPZ+HcHEXqCSSw8xkiI9Q2ENQmUODEjrkv4/Yd/fh+csdsc1Lna8O12uEkZRW2yYtzu0fgIEBcK+l7ANBWfwMAOmHDnqyU+hsj2QKAfvIL4DXl4SfXYtNHA8DSGfcNAAozOnMchij1AQLmoYxQhCU4QpPGKmQBA5FG9ZQhMSDGXnYwFXAtZOwAipKbznDGS7N2RQv34ijkkpP5TNbkKupbiSlTKPq7Tt8ALxDweLZXtRkmY/Q9J5TyAxtOy7gbl/bri/0lz+P66r6uYwd0lvOTl2P6tDxvCfTxQ9Ix9zUWtktGskWAJ5iJ/gCg6ZJMybjIl07Yv8hPR+RV9H/oMa7RC34P4BjqkrVLHS/aY85OQNhngsSMs1/dwVCS0AiLADGDOUZBh2h5rajmB0ywORvUxuajb3jDG3askJZxU1ok8pYOMwLAhTnRpYkzq+Zj9+2fZsiQA2Hy8/NY2D5qrHPMdIIZqfUC1gSYAgEHhgkc+n06Ecp5GNg03wUOU5ZtHQckGJCQB3lyFN+5r/sICth4/CCGn4+jc3YAFDhGJLuYv9mg5iFYALJv+ZZv2elIZN2no3No2rT9MhQBSeaS3rPtpkrYOcbBZgW9fviDXgTFWflHUz+n0jnXTro4AHSMMTQ/lCaqjmKK9JnxEZh0FYtKoaV0lUEyDkITJYoWd6FptGgfADBaRsq4Xv/6168CAEfQbw4pGmQUAO3SxDEyHEb3wz/8wzvnNccEVpih9StG5LVmGPTiO1MIQGJhkP3k6lo/UoEVBY0J0BkrB8gRJnUvugb4mBylwlhG5xpMvwEMAKBnbGwAh/PrS3QtAFD/gVk1iaK+PrFjWRmmr7IsfVP1xwJagG2M3WNNV8fQOddOutg6ADSFx6gohXIMnAEh53CWDIYjES5Hck5cW/bNtcoacBEJdz4ltZ1cO1PoZSfLIiAFVrugNP3H0zCRsTFY51eld/6xLFXH+77jKIycEzaX12eRlcFhUZlMRRtZkvs3p+ewa0zWDLU6ApkHaNpzfxG6zItz6o/j+uu7tnO/vtI1mcuGyFW7+ijDADA9ClOrcK32fR8ITaPWtxwO+Bm/vrvHviKg6907e9hnC0vuvOwomyInfQfwbAUYGg9w6wkMMMKCGftkX8YDkAEcAFD/6rFffUTGea4Dn3t9dFEAWOsU4WBCYFiMjfO0jygEESZnZOQUT8BY3cAxUYlSKMe5GTZgEIlsfe5Yyr0kACDtUGjsnEuwfhqTPuoTw+cEUkw1E5GHHBCZdW/7ZENWFeeMjQxxziTbYcCimOPJEtGHaExe+qBN/TFWx/Hsa2N3Ts5TikxfvgMQio6cYhYqAWdpv/bj6BQAYEP6QOfZxbSHfZyTO9c1OTuZux/5ybTInbzIvpWXQEC/AB05AECR3xj7QVxAAOQAoz5emqaszqGLAgCqY3OLKam0laNRfopLETjHZ0AMGS+dP+d2nW2KZoD2JwAw4sBFPyiMspvDcRLtngIAjSnna3ssl+7i5bWcb+n8+skQOX/1BnLLQW2N2/FkxoCTo23OJPoDAW1qP8PXjrEalz5o076+cny6Shaz37bOnQDgntp2PufnsJyfXEVEjkv/2nV98sTRqRmAPhiL62yzizUQYB/ZXCBo6z45P5DM+StY+0x2ZM3+9EfKz/llOADA1ryf87Mpcro0TVmdQ2cBwFTc7FD7bQmAIKoaU3yKQwwuoyNUiqBITo/tOxanLI4bcxhMMZSIfe58Stcf96R80R8zrq5n5BnXGgA0Vsx4L836pu+AiSMzRE7PGBme/jrHuRG5GZ8x5PDaSH72OY/vtMupfCYb13ESZJz0wJEBgs8AgAwC7PrZ+G2dm/70LXlzAGkwmYqIpgHkqtYynR+1jUq7DwGAyKsd7L6+D/jYQePfx8mjbTxlDihFe+yY/uiHsZGJcRiT/nB6ab+6BtDTN/JaOr9xXoIvRWcVAddofr/cpygKyMgZNeFSXEqmPEaEGVUZgxQViOAiSEzQOOG4l+OUhM2rKzwxVgVAz25PfQow6ZKKiMigApM+BVTkAqg4BgcNnMjB+MjEZ/JK5uQxnRQB2ADPPkpWjZesRGo8n9KQzxxzbeqPttJtfSZnjoDVKAAC5hj7aLbNERUArapbKwJyPDZBBuQmPcccuYyEPPaR4/vYGAo0Ak9sLGVu5G1eb1yeWnF4bGojK3Fcn54C3QsALGmeT5AZCyFTHIbalM5wbAECZqhFF8RQKQIXjTLypUMyNIpifCJQVW6A4hVV3IsbmGIzrscCABFPBd3rvAxeyg4gOX7p+Bw7g5zyQMk7meCOkWVpMZnWjn3H6KXILcpysopaDBstx+1a7WJtlKG5J1njAAvr823EBjj/IQDQP23Ts0DSX7wBztJ7IIDq87RF+3GfjSXwyO5sAU3ObW5ftZ/TK5Tiprf6Qx9Pge40BZiGdQwvr2EEBEWomMERHtRMgBmJ8zNQSmG8AISRQWaOASRkDaV9fWaEznedNlOc/QCmdBHrV+nlbUVA1NhQjqVvARx2TN8bx20kOveYSRraPDjH1C9OkMzKhoyp/tqfn4HG/I7MgZ02gCN2nMPINPQ/XTjP9+4JDBvzHLv9gEg7+gR4sT66n7b04xgZILqVIeK1KYD23ReL+qK/jI78fC5lzy5wuo7ZSpmVezZ9oTN9NR735PxsR6QHjoGiLIld+Z6syPjYMV4D3SkDOJWWt+hzEQNz1hSVsinRZ8rBzsm5XJNzayfWdsZJeR5pMXSK8iclnpczbtHfUmQZAIPBFCiyHFoHMGk6gX5lZBwpYvgcqEdrt5EM6O1vf/sumol45ICNhdHjtUh8qipdz1gxWYu0il3k2hSAkZMFBj5oyvhYOvX8YzIAQEC+WJYk+lsodWwG0DHjL4sCUtojb/rKBuiP3IEOZy8bKHDhpxL1Jz0KAESOc9qie1GTM1UDgMpFdEgdWgODzgUGZQdFW8xxRSMKNFdrYQYlNwVgXNUAJgBYM38KAOiXdB3ra8RARA5zaUZ0G5XKYpV/4yQHhuf/8f3xagt+YjT7cheSbVgghPVfnzEnS27S3Luay6n9OwYARGGOx1Flc/SprkOGbIJ9sK+1e3ec49Ix1habwTNDosfswTk5fVMyWchTivzRgwDApEO36ztOTHGcmoMDgFK19gGD7zBFc/4lAFAMJUF0iC16St/cJ2MR8ar4UjLnPxYAAi73FaWloAxVNC01FSU8AhNJORA65AxzLisraVzmmq95zWt2LDI3xtqyrT+4bMgxhtk0QJ8mOQebcrzxjW+8edOb3rSbcrgf0CSvCQBdcyodGvM+OhYAitKyxpabmzKQGTkYPzp0/2RTui8QYIDdVCY7SIZlTqeO69ro4usA7kprRkXAGTBHpgiOWkrGIKSm5mGMVnRcsuMVa1zHOKpUmycGKjPNdu5U+D4SZaT8HEYRkaFigCJLkYK6tjm0qIIOGY3ryiT0iQGTjTFXbdbebMM+1h/XNHfWL5FRRNdO0arzI+1zIBkHlnFwAPdk/OSLyf4uzo/m/Y6hY2oA9J+Oap+N6HM6B2JswBZ3rO+zm3mM7ulLO7IAetMu2eEcfynHp0iPnrMwqGlUCZWQOQ/lUgBlUJbKq6gkqlp0ITJ54UJqXJW/P1+UMvt3YtGcwTBiGQFyT04R34U4HMPk8KKTbELEUogSUc1LGa/Mxbk587FO5Lwpjzijq63aA2wASRbh/hXF9A0QcOz6cBvNe9qf97kmSj4yAc7LLnrRiP6zCfsxW8HOwWyEHbGTFiz1WK/oLzgAUDbZPV8M9KgAsGZQCZjxQVzoCwSKSNAZGEDt5tcUJjX2nN8jP+yz75zD+V1PiVN59eFY4+ZAnJkziaw5m9TTD0FK2x0TfUUsAFFF2jE8IzT2PZAwnSl1R8lhjZck5RU5tSe7AUwyE1v90G8021+j+Z0xa7vpGFDrKUrcWA5x49YXtQ1t6suxsl/S7KNAIbtjE9lCNrDcn1xWJbCwkzIA2YXon/Ozw33OX/+X/FToqqsWS2FfA4myS8cX9UV/Tiftz2GcK6VXX/DEQYVake2tb33rjr2RZ+s/8LUFMFzvOlT0xRnVNLK+S0bTUQEUUNGm/mrXNTOqL8n32sD2kX3A4XrAYi7uKcVb3vKWHfuZ8XiOK/a5741dfcMCH9mRPnafh6Apr+TAqadM9snlxUxXBQBT+NeqiACAAffnDwDAVuEqo66ICQBEYIt7AgCcc9hOAOC8rkNLR9VuvI8c1z9FURFWtBZtJwBk8JO6h+9z/u7hszaNCwCYTvifgen8Of50/jnGjgcA5DUBoHtNui/9aze52pLHiy2tP4UeFQAS+prwD333WMQ5ORfHkvqK+ozZvojLWTgNALDvXGmv4lpLVWULGGhg37le+t71aAkA+2h+nwPro6hdJoC16/tle322bX86pa32XA/MpPLAqjFMbjxLVhj1fU9JZESBXVOe+jb7cQmabU4m2yXP758LXfUU4Fqp6I4ZLuMpsmY8HDEnjEVh3GeR2jnacX5OFy0/o2mk3Wu5RfOcjudoS6rfOUIczXYmwGBjiJfjjPu+87sWAxby3OhxaAOAE4kD5QQZLmeZc0nkuwx+n1NMAMgJcs4cNUbTCeOOL7drjGabqO/023YJZKjvUWPX5+nIjXMJAn32/dL5fV6OfdLsw0b3Qw8OAJR6Cq/RvnPxfRNH8CTB48SeTKg+2zo255Odq5Ls2b3FSJ5gTK7i7Lm7avPSAXPYpdPOLfK9z6rh7qc9VeyeZXuSot3Z3pKj2a591/U0xjiNo7UB2BjifeNbHieLZLW87+SN7p+uZiHQqXSOgZiXtxCo5/SYgd+2EKhUvUU1y9RdZEPAATBwEI8m+6EI+9Yx4B5X9pqyR1DGpWagJqCIJzqKuNrzSHPfkuIcuKiM5qo27Xrk5dGpY52P9R8r8ClqYjUD12EAQhbG4Vpjdtzimvq9xo3TPpm2j/VHm8bV83VAE6mH9PhwbSEQINqno2ugpwJgGwCcCADu6xhDdH4AYCul1Q6nLfp6tsz5LUCx2CSnwD2b9hza82uRkbNzfk8UVO8nADgvANCPZDAdGdW/shOOxvm177ul87sH5+L8vX/g2gDA9UDE9Y5rS7/nWOIcfd8xjm/MxqBNbe3LetAGAA9DVw8AGfqSz6FLAIAUtgwA2Yq+oqfzGScGACK/t+k4QdFUKiz1xxyLs3EG1+uXJwuMvrm1KMkZOY0+1GcsU4g5jvPn3DoH81n7+651P4/4ZgbgXvo3AWBmBTOtj9eOY/LQHlDiyMa0dPyoJw6yITri/OQxAUBb6WhmD+fax22k/dv4qdCTzQDOoXMAYFJRlCE7j+IZomjNaXKU3kfgUBn8NJKus+XAnBFLy33moApqMgGO0SIkj9RijusYtm8FoMdt2mmsrQz0/WTHemRnJSMA4egcNQDAxrXs+5IOfbeP5vnkGRkn5wcC5HAIAJpCRKf24VS67/Yfkh78bcDHIsOMGZXFN34WzDPqXr6Rtt/2NmDisuWQoiXWZs/5GWqgIPLJADAnYqiYEdUf5DMQ4KjeBMTaAlAcANAAFEZv3fsk1+LS+SJ/x7W7BJ7lFtCYemD99qYdR9NvspDBGAuqz/uo9u5Kta0fy58Ew/ow3wZMR+S9HNN90X23/5D04E8BroUocRrMqUp1vimAqCi1FeXNb732i813rS+XAYj800Cj7hsjjloBD8tK3AfYyAQAVZHbfF30jkV8Ud45sgR1BMDEmWQCvuvHT5zfFgMeIKAfpjcY0Lg/QAhA0Ozzks+hCSxrILPvHp17CJgO0XIMt/GLiZ4tAKBLKNT1nIOjiE5AwBtlcfN+zlQknrTsA6AQ6RX8ROBYO4pnTScUDe0vWc2hF1t87jVX2+U1jivo6Z999+ynriaAmQ4AocegnDo5LeV1rvM/d3p2ALA0oqVBnUpdDwBkAhMAciTAIKIWRef9+twx0VaxjbPvAwBO3JuQOXyOPh3ccZ859gSAJQcAtrcBwGM72VJ2kX5tAHA3elY1gLbSYr8GpAbgNwGlzP0i0G0/CXZJcS2NWdsKcN7pV0fAagBYUUxl31TAeeoInHKfQxxL1Qy0qR1TD2MlB6DF+WUjioEtJkKXlMGSGo/pS/8N6D2CCpz6REff/M3f/J5fBMJNseZU5RCdI7cXEz07AEAAoD8HBQDmxksAWPtR0PsWFyf3lEJh0Zyc42PAwFk5rT40nTjHkLUTCGgHoGDZiqiPjT8ne4hpQONZAkBFQABQEVCmUr1iA4C70QYA/wMAnH8CAH4sAOCQIjIGBnGV/e7PgC9hxLPNnEd2waHisg3f3zc1rgDAa9SeAlijgD1J+bZv+7YdCAAAWQkAqH8bAJxGzwYAJgUA/TNQlXERr+hi1d4+AEDPUGQPRhMA+oOUHgMGAN/+7d9+863f+q27KQAAwIAq55/Ofaqjn3r+U6dn+RSAkhlLz+SLbEVDXKq9z9kzso0vz9HMhLDPhyL8mq42OkzPEgBQACB1ZFA5/ZKnYU1D3fj+GJG5ac8sfPousEbpJv0sP290Oz1LAGBE0vqKW/YdY3CKb1XhFd8swbXGP0N0Dp7RaePLMDmTt+Jny7O9EOWz74G1JxXVJegMBxptNzqenmUNgINXVTa/bK7JAP1ctJ+V9hy/Z+yey1cQY3DLzGCjyxD5ewKCrU7sz1usYvQUBFtn8brXvW7H1ioAb3opk0PnAMJzA5FnCQAie+v/PWLqr7gAAwPDFt6oMis0WUgj8mCRBwBUld/ociT76qUfz/z9kjIQcKxiH3289rWv3bGFSzk/YEbnOvAGAM+AGJrFNd42kwX0a73Ww1vwgq2SAwDYPudngACgaUCie25Gc18k8vfyk6cysjMA7ZXo3kj0ctKrXvWqm6/+6q/eZWf00XRgo9PpWQIAg5IFmGN6/u/NQMzoeu7O2S2PxVbClWo2BQgAOH+80XnUD6pgWQCAxp7ztyQaIAMBUzRLr6sBbABwN3qWAMB5GZs5pzflzP+xbEAW4Bm0YhTDUyQs9ceMLQBADC8j3Og8UuijF9ziJ7KWganN+FUlINBLTPP3CTb5342eJQAYMsPC5v3eu2+lmbknILBYiBECCedNA/M5sW0AcD8kAzMVk32px/Qff+b9LVOWlZ0i901HL6RnCwCxeWc/hKHa3C/qKBDOF3E6fzo/YlTxRueRYl7FPum9tx9xRVm/AuR458zKP7pNB5uOXkjPFgAiUV66jxWf/MgGBgI9KjQPlY5KUScAZFCbYV2GOLWI77GrSO99DGx//hrSnI5N2d+mj01PL6RnCQCT5vDn40HPofudPNkB5wcWAABtxnR54twcHYv63sfw193m/MChWgxaA+GlXtb0tOnvXbQBwBi+hSa9hy8bUBDk/H6Ki+Mv0/+NLkvm9L2A5fcI+nUjtYD5vJ8OJhDHfZ605uhrx58bbQAwhj+fDgAD6wWwyL/R/RPn5uTVAmQEvY05nTwgxhVgp0Ov7U9aO/7caAOAdw9/nxgc6ziDYWyTNiO6PzqkD7xlAJehDQDePfx9Ylge2wDg4WjKft9+WzrYp4fbdLPp7l20AcDCoCbNYxnMNJzNiO6PyP4Y07yrDjbdvYs2AHj38I8VwwYAD0P0saaT5L7J/3zaFlAfSYxtM7iNXmy0AcAByuk3x38c2uR+/7RNAY4Y/maID0+bXh6Gtgxgo42eMW0AsNFGz5Zubv5/XNvXLPv12NEAAAAASUVORK5CYII=;" vertex="1" parent="1">
          <mxGeometry x="980" y="169" width="83.66" height="50" as="geometry" />
        </mxCell>
        <mxCell id="79iyy5_s4vcbfLESOXtx-30" value="" style="edgeStyle=elbowEdgeStyle;elbow=horizontal;endArrow=classic;html=1;curved=0;rounded=0;endSize=8;startSize=8;exitX=0.905;exitY=0.45;exitDx=0;exitDy=0;exitPerimeter=0;entryX=0;entryY=0.5;entryDx=0;entryDy=0;" edge="1" parent="1" target="79iyy5_s4vcbfLESOXtx-21">
          <mxGeometry width="50" height="50" relative="1" as="geometry">
            <mxPoint x="682.0000000000002" y="420" as="sourcePoint" />
            <mxPoint x="822.8299999999999" y="260" as="targetPoint" />
            <Array as="points">
              <mxPoint x="710.55" y="416.75" />
              <mxPoint x="730.55" y="356.75" />
            </Array>
          </mxGeometry>
        </mxCell>
        <mxCell id="79iyy5_s4vcbfLESOXtx-31" value="NSG" style="shape=mxgraph.cisco.security.network_security;sketch=0;html=1;pointerEvents=1;dashed=0;fillColor=#036897;strokeColor=#ffffff;strokeWidth=2;verticalLabelPosition=bottom;verticalAlign=top;align=center;outlineConnect=0;" vertex="1" parent="1">
          <mxGeometry x="1063.6599999999999" y="290" width="45" height="58" as="geometry" />
        </mxCell>
        <mxCell id="_WplYtkVam7jqRaljVhy-1" value="Egress LB" style="shape=mxgraph.cisco.misc.ace;sketch=0;html=1;pointerEvents=1;dashed=0;fillColor=#036897;strokeColor=#ffffff;strokeWidth=2;verticalLabelPosition=bottom;verticalAlign=top;align=center;outlineConnect=0;" vertex="1" parent="1">
          <mxGeometry x="600" y="390" width="90" height="64" as="geometry" />
        </mxCell>
        <mxCell id="_WplYtkVam7jqRaljVhy-2" value="Ingress LB" style="shape=mxgraph.cisco.misc.ace;sketch=0;html=1;pointerEvents=1;dashed=0;fillColor=#036897;strokeColor=#ffffff;strokeWidth=2;verticalLabelPosition=bottom;verticalAlign=top;align=center;outlineConnect=0;" vertex="1" parent="1">
          <mxGeometry x="1170" y="392" width="90" height="60" as="geometry" />
        </mxCell>
        <mxCell id="_WplYtkVam7jqRaljVhy-3" value="" style="edgeStyle=elbowEdgeStyle;elbow=horizontal;endArrow=classic;html=1;curved=0;rounded=0;endSize=8;startSize=8;exitX=1;exitY=0.75;exitDx=0;exitDy=0;" edge="1" parent="1" source="79iyy5_s4vcbfLESOXtx-23" target="_WplYtkVam7jqRaljVhy-2">
          <mxGeometry width="50" height="50" relative="1" as="geometry">
            <mxPoint x="692.0000000000002" y="430" as="sourcePoint" />
            <mxPoint x="826" y="220" as="targetPoint" />
            <Array as="points">
              <mxPoint x="1210" y="340" />
              <mxPoint x="740.55" y="366.75" />
            </Array>
          </mxGeometry>
        </mxCell>
        <mxCell id="_WplYtkVam7jqRaljVhy-5" value="" style="line;strokeWidth=2;direction=south;html=1;" vertex="1" parent="1">
          <mxGeometry x="850" y="90" width="10" height="82" as="geometry" />
        </mxCell>
        <mxCell id="_WplYtkVam7jqRaljVhy-6" value="" style="line;strokeWidth=2;direction=south;html=1;" vertex="1" parent="1">
          <mxGeometry x="1016.83" y="72" width="10" height="100" as="geometry" />
        </mxCell>
        <mxCell id="_WplYtkVam7jqRaljVhy-12" value="eth1" style="sketch=0;outlineConnect=0;fontColor=#232F3E;gradientColor=none;strokeColor=#232F3E;fillColor=#ffffff;dashed=0;verticalLabelPosition=bottom;verticalAlign=top;align=center;html=1;fontSize=12;fontStyle=0;aspect=fixed;shape=mxgraph.aws4.resourceIcon;resIcon=mxgraph.aws4.elastic_network_interface;" vertex="1" parent="1">
          <mxGeometry x="837.5" y="242.5" width="35" height="35" as="geometry" />
        </mxCell>
        <mxCell id="_WplYtkVam7jqRaljVhy-13" value="eth1" style="sketch=0;outlineConnect=0;fontColor=#232F3E;gradientColor=none;strokeColor=#232F3E;fillColor=#ffffff;dashed=0;verticalLabelPosition=bottom;verticalAlign=top;align=center;html=1;fontSize=12;fontStyle=0;aspect=fixed;shape=mxgraph.aws4.resourceIcon;resIcon=mxgraph.aws4.elastic_network_interface;" vertex="1" parent="1">
          <mxGeometry x="1004.33" y="242.5" width="35" height="35" as="geometry" />
        </mxCell>
        <mxCell id="_WplYtkVam7jqRaljVhy-14" value="eth1" style="sketch=0;outlineConnect=0;fontColor=#232F3E;gradientColor=none;strokeColor=#232F3E;fillColor=#ffffff;dashed=0;verticalLabelPosition=bottom;verticalAlign=top;align=center;html=1;fontSize=12;fontStyle=0;aspect=fixed;shape=mxgraph.aws4.resourceIcon;resIcon=mxgraph.aws4.elastic_network_interface;" vertex="1" parent="1">
          <mxGeometry x="837.5" y="86.5" width="35" height="35" as="geometry" />
        </mxCell>
        <mxCell id="_WplYtkVam7jqRaljVhy-15" value="eth1" style="sketch=0;outlineConnect=0;fontColor=#232F3E;gradientColor=none;strokeColor=#232F3E;fillColor=#ffffff;dashed=0;verticalLabelPosition=bottom;verticalAlign=top;align=center;html=1;fontSize=12;fontStyle=0;aspect=fixed;shape=mxgraph.aws4.resourceIcon;resIcon=mxgraph.aws4.elastic_network_interface;" vertex="1" parent="1">
          <mxGeometry x="1004.33" y="86.5" width="35" height="35" as="geometry" />
        </mxCell>
      </root>
    </mxGraphModel>
  </diagram>
</mxfile>
